<?xml version="1.0" encoding="utf-8"?>
<!-- Generator: Adobe Illustrator 16.0.0, SVG Export Plug-In . SVG Version: 6.00 Build 0)  -->
<!DOCTYPE svg PUBLIC "-//W3C//DTD SVG 1.1//EN" "http://www.w3.org/Graphics/SVG/1.1/DTD/svg11.dtd">
<svg version="1.1" id="Capa_1" xmlns="http://www.w3.org/2000/svg" xmlns:xlink="http://www.w3.org/1999/xlink" x="0px" y="0px"
	 width="32px" height="32.98px" viewBox="0 0 32 32.98" enable-background="new 0 0 32 32.98" xml:space="preserve">
<g>
	<path fill-rule="evenodd" clip-rule="evenodd" fill="#FFFFFF" d="M1.997,30.978c0-9.705,0-19.339,0-28.957
		c5.016,0,9.972,0,15.004,0c0,2.404,0,4.762,0,7.225c2.447,0,4.82,0,7.277,0c0,2.994,0,5.88,0,8.758c0.384,0,0.682,0,1.027,0
		c0.013-0.282,0.034-0.529,0.035-0.777c0.002-2.674-0.014-5.348,0.013-8.022c0.006-0.53-0.159-0.893-0.529-1.262
		c-2.344-2.333-4.667-4.69-6.995-7.039c-5.654,0-11.307,0-16.951,0c0,10.428,0,20.8,0,31.17c5.402,0,10.794,0,16.187,0
		c-0.022-0.344-0.047-0.687-0.075-1.097C11.943,30.978,6.965,30.978,1.997,30.978z M18.118,2.932c1.729,1.762,3.4,3.466,5.063,5.161
		c-1.608,0-3.307,0-5.063,0C18.118,6.388,18.118,4.689,18.118,2.932z"/>
	<path fill-rule="evenodd" clip-rule="evenodd" fill="#FFFFFF" d="M30.31,19.578c-3.686-0.008-7.373-0.007-11.059-0.005
		c-0.22,0-0.438,0.03-0.735,0.05c0,0.347,0,0.646,0,0.948c0,3.533,0.003,7.068-0.004,10.601c0,0.303-0.047,0.603-0.072,0.903
		c4.229,0,8.456,0,12.683,0c0-4.125,0-8.251,0-12.375C30.852,19.657,30.582,19.578,30.31,19.578z M29.921,30.97
		c-3.449,0-6.822,0-10.24,0c0-3.43,0-6.827,0-10.276c1.505,0,2.99,0,4.521,0c0,2.09,0,4.158,0,6.284
		c-0.691-0.727-1.347-1.416-2.11-2.22c-0.302,0.405-0.491,0.661-0.635,0.853c1.128,1.117,2.289,2.268,3.429,3.396
		c1.026-1.031,2.155-2.165,3.348-3.362c-0.172-0.182-0.388-0.413-0.712-0.758c-0.646,0.761-1.262,1.489-1.878,2.216
		c-0.08-0.058-0.16-0.116-0.239-0.176c0-2.059,0-4.119,0-6.232c1.493,0,2.979,0,4.517,0C29.921,24.121,29.921,27.517,29.921,30.97z"
		/>
	<path fill-rule="evenodd" clip-rule="evenodd" fill="#FFFFFF" d="M19.254,12.342c-2.057-0.004-4.114-0.003-6.172-0.002
		c-2.108,0-4.217-0.015-6.324,0.023c-0.232,0.004-0.46,0.316-0.69,0.486c0.224,0.186,0.444,0.379,0.676,0.554
		c0.05,0.036,0.149,0.007,0.225,0.007c4.09,0,8.18,0,12.27,0c0.417,0,0.881,0.008,0.868-0.581
		C20.093,12.26,19.626,12.342,19.254,12.342z"/>
	<path fill-rule="evenodd" clip-rule="evenodd" fill="#FFFFFF" d="M19.264,17.56c0.394,0.001,0.828,0.001,0.841-0.529
		c0.015-0.595-0.464-0.558-0.874-0.565c-0.102-0.002-0.203,0-0.305,0c-3.888,0-7.774,0-11.661,0c-0.254,0-0.536-0.05-0.752,0.046
		c-0.187,0.083-0.391,0.327-0.414,0.52C6.081,17.18,6.3,17.418,6.471,17.512c0.16,0.087,0.396,0.047,0.598,0.047
		c1.982,0.002,3.963,0.001,5.945,0.001c1.931,0,3.861,0,5.794,0C18.958,17.56,19.11,17.56,19.264,17.56z"/>
	<path fill-rule="evenodd" clip-rule="evenodd" fill="#FFFFFF" d="M15.96,21.201c-0.243-0.195-0.483-0.556-0.729-0.56
		c-2.8-0.04-5.603-0.039-8.403-0.001c-0.256,0.003-0.684,0.308-0.725,0.529c-0.087,0.476,0.341,0.52,0.724,0.518
		c1.4-0.005,2.801-0.002,4.202-0.002c1.4,0,2.801,0.023,4.201-0.021C15.479,21.655,15.717,21.362,15.96,21.201z"/>
	<path fill-rule="evenodd" clip-rule="evenodd" fill="#FFFFFF" d="M6.817,24.792c-0.253,0.004-0.673,0.317-0.713,0.539
		c-0.085,0.487,0.36,0.506,0.73,0.506c1.142-0.002,2.284-0.001,3.425-0.001c1.141,0,2.284,0.028,3.423-0.022
		c0.247-0.011,0.48-0.307,0.719-0.472c-0.245-0.192-0.487-0.545-0.736-0.55C11.383,24.75,9.099,24.75,6.817,24.792z"/>
	<path fill-rule="evenodd" clip-rule="evenodd" fill="#FFFFFF" d="M9.155,9.231c0.839,0,1.682,0.04,2.517-0.026
		c0.23-0.019,0.435-0.354,0.651-0.544c-0.215-0.166-0.427-0.469-0.647-0.475c-1.653-0.04-3.307-0.043-4.959,0.003
		C6.496,8.196,6.284,8.544,6.069,8.734C6.284,8.9,6.49,9.192,6.714,9.208C7.525,9.266,8.341,9.231,9.155,9.231z"/>
</g>
</svg>
