<?xml version="1.0" encoding="utf-8"?>
<!-- Generator: Adobe Illustrator 16.0.0, SVG Export Plug-In . SVG Version: 6.00 Build 0)  -->
<!DOCTYPE svg PUBLIC "-//W3C//DTD SVG 1.1//EN" "http://www.w3.org/Graphics/SVG/1.1/DTD/svg11.dtd">
<svg version="1.1" id="Layer_1" xmlns="http://www.w3.org/2000/svg" xmlns:xlink="http://www.w3.org/1999/xlink" x="0px" y="0px"
	 width="612px" height="792px" viewBox="0 0 612 792" enable-background="new 0 0 612 792" xml:space="preserve">
<g>
	<g>
		<path fill="#FFFFFF" d="M554.619,241.642L406.635,93.659c-2.344-2.343-5.52-3.659-8.832-3.659h-283.38
			c-33.471,0-60.7,27.231-60.7,60.703v490.596c0,33.47,27.23,60.701,60.701,60.701h383.153c33.472,0,60.702-27.23,60.702-60.701
			V250.474C558.276,247.162,556.961,243.985,554.619,241.642z M410.296,132.647l105.34,105.338h-69.618
			c-9.543,0-18.515-3.716-25.261-10.462c-6.745-6.745-10.462-15.716-10.461-25.258V132.647z M533.297,641.298
			c0,19.697-16.024,35.722-35.721,35.722H114.422c-19.698,0-35.722-16.024-35.722-35.722V150.703
			c0.001-19.698,16.026-35.723,35.722-35.723h270.894v87.283c-0.002,16.214,6.312,31.458,17.775,42.922
			c11.466,11.466,26.71,17.779,42.925,17.779h87.279L533.297,641.298L533.297,641.298z"/>
	</g>
</g>
<g>
	<g>
		<path fill="#FFFFFF" d="M328.82,510.142h-5.592c-6.896,0-12.489,5.592-12.489,12.49s5.593,12.489,12.489,12.489h5.592
			c6.896,0,12.49-5.591,12.49-12.489S335.717,510.142,328.82,510.142z"/>
	</g>
</g>
<g>
	<g>
		<path fill="#FFFFFF" d="M282.822,510.142H161.508c-6.897,0-12.49,5.592-12.49,12.49s5.593,12.489,12.49,12.489h121.314
			c6.897,0,12.49-5.591,12.49-12.489S289.721,510.142,282.822,510.142z"/>
	</g>
</g>
<g>
	<g>
		<path fill="#FFFFFF" d="M450.491,453.072H161.509c-6.897,0-12.49,5.592-12.49,12.489c0,6.898,5.593,12.49,12.49,12.49h288.982
			c6.896,0,12.489-5.592,12.489-12.49S457.388,453.072,450.491,453.072z"/>
	</g>
</g>
<g>
	<g>
		<path fill="#FFFFFF" d="M450.491,396H161.509c-6.897,0-12.49,5.591-12.49,12.49s5.593,12.49,12.49,12.49h288.982
			c6.896,0,12.489-5.592,12.489-12.49S457.388,396,450.491,396z"/>
	</g>
</g>
<g>
	<g>
		<path fill="#FFFFFF" d="M450.491,338.929H161.509c-6.897,0-12.49,5.592-12.49,12.49c0,6.898,5.593,12.49,12.49,12.49h288.982
			c6.896,0,12.489-5.592,12.489-12.49C462.98,344.521,457.388,338.929,450.491,338.929z"/>
	</g>
</g>
</svg>
