<?xml version="1.0" encoding="utf-8"?>
<!-- Generator: Adobe Illustrator 16.0.0, SVG Export Plug-In . SVG Version: 6.00 Build 0)  -->
<!DOCTYPE svg PUBLIC "-//W3C//DTD SVG 1.1//EN" "http://www.w3.org/Graphics/SVG/1.1/DTD/svg11.dtd">
<svg version="1.1" id="Capa_1" xmlns="http://www.w3.org/2000/svg" xmlns:xlink="http://www.w3.org/1999/xlink" x="0px" y="0px"
	 width="32px" height="32px" viewBox="0 0 32 32" enable-background="new 0 0 32 32" xml:space="preserve">
<g>
	<path fill="#CCCCCC" d="M16,0C7.163,0,0,7.162,0,16c0,8.837,7.163,16,16,16s16-7.163,16-16C32,7.162,24.837,0,16,0L16,0z M16,29.5
		C8.544,29.5,2.5,23.456,2.5,16S8.544,2.499,16,2.499S29.5,8.544,29.5,16S23.456,29.5,16,29.5L16,29.5z M16,29.5"/>
	<path fill-rule="evenodd" clip-rule="evenodd" fill="#CCCCCC" d="M8.006,23.993h3V11.992h-3V23.993z M20.006,11.992
		c-2.568,0.043-3.832,1.916-4,2.001v-2.001h-3v12.001h3v-7.001c0-0.256,0.633-2.312,3-1.999c1.271,0.083,1.957,1.764,2,1.999v7.001
		l2.988,0.014v-8.309C23.889,14.5,23.289,12.035,20.006,11.992L20.006,11.992z M9.506,7.992c-0.828,0-1.5,0.671-1.5,1.5
		s0.672,1.5,1.5,1.5s1.5-0.671,1.5-1.5S10.334,7.992,9.506,7.992L9.506,7.992z M9.506,7.992"/>
</g>
</svg>
