<?xml version="1.0" encoding="utf-8"?>
<!-- Generator: Adobe Illustrator 16.0.0, SVG Export Plug-In . SVG Version: 6.00 Build 0)  -->
<!DOCTYPE svg PUBLIC "-//W3C//DTD SVG 1.1//EN" "http://www.w3.org/Graphics/SVG/1.1/DTD/svg11.dtd">
<svg version="1.1" id="Layer_1" xmlns="http://www.w3.org/2000/svg" xmlns:xlink="http://www.w3.org/1999/xlink" x="0px" y="0px"
	 width="612px" height="701.965px" viewBox="0 44.608 612 701.965" enable-background="new 0 44.608 612 701.965"
	 xml:space="preserve">
<g>
	<path fill="#FF5050" d="M357.105,620.459H81.131c-11.291,0-20.442-9.151-20.442-20.442V497.804
		c0-11.291,9.151-20.442,20.442-20.442h275.975c11.291,0,20.442,9.151,20.442,20.442v102.213
		C377.548,611.308,368.396,620.459,357.105,620.459z"/>
	<path d="M558.086,194.609L455.872,92.396c-1.795-1.797-4.233-2.806-6.775-2.806H142.459c-16.557,0-30.025,13.469-30.025,30.024
		v348.163H81.131c-16.556,0-30.024,13.469-30.024,30.024v102.214c0,16.557,13.469,30.025,30.024,30.025h31.303v41.523
		c0,16.557,13.469,30.025,30.025,30.025h388.409c16.557,0,30.025-13.469,30.025-30.025v-470.18
		C560.893,198.844,559.884,196.407,558.086,194.609z M458.68,122.307l69.497,69.496h-58.638c-5.988,0-10.86-4.872-10.86-10.86
		L458.68,122.307L458.68,122.307z M70.271,600.017V497.804c0-5.989,4.872-10.861,10.86-10.861h275.975
		c5.989,0,10.861,4.872,10.861,10.861v102.213c0,5.988-4.872,10.86-10.861,10.86H81.131
		C75.143,610.877,70.271,606.005,70.271,600.017z M530.867,682.427H142.459c-5.988,0-10.86-4.872-10.86-10.861v-41.523h225.507
		c16.557,0,30.025-13.469,30.025-30.025V497.804c0-16.557-13.469-30.025-30.025-30.025H131.599V119.615
		c0-5.988,4.872-10.86,10.86-10.86h297.057v72.188c0,16.557,13.469,30.025,30.024,30.025h72.188v460.597
		C541.728,677.555,536.855,682.427,530.867,682.427z"/>
	<path d="M111.156,568.714h31.303c16.557,0,30.025-13.469,30.025-30.025c0-16.556-13.469-30.024-30.025-30.024h-40.886
		c-5.292,0-9.583,4.29-9.583,9.583v61.327c0,5.292,4.29,9.583,9.583,9.583c5.292,0,9.583-4.29,9.583-9.583V568.714z
		 M153.318,538.688c0,5.989-4.872,10.861-10.86,10.861h-31.302v-21.722h31.303C148.447,527.828,153.318,532.7,153.318,538.688z"/>
	<path d="M193.564,589.156h30.663c22.192,0,40.246-18.056,40.246-40.246c0-22.192-18.055-40.246-40.246-40.246h-30.663
		c-5.292,0-9.583,4.29-9.583,9.583v61.327C183.983,584.866,188.272,589.156,193.564,589.156z M203.147,527.828h21.082
		c11.624,0,21.081,9.457,21.081,21.082c0,11.624-9.457,21.081-21.081,21.081h-21.082V527.828z"/>
	<path d="M285.557,589.156c5.292,0,9.583-4.29,9.583-9.583v-21.082h21.082c5.291,0,9.582-4.289,9.582-9.582
		c0-5.292-4.289-9.583-9.582-9.583H295.14v-11.499h41.523c5.292,0,9.583-4.29,9.583-9.583c0-5.292-4.29-9.583-9.583-9.583h-51.106
		c-5.291,0-9.582,4.29-9.582,9.583v61.328C275.975,584.866,280.265,589.156,285.557,589.156z"/>
</g>
</svg>
