<?xml version="1.0" encoding="utf-8"?>
<!-- Generator: Adobe Illustrator 16.0.0, SVG Export Plug-In . SVG Version: 6.00 Build 0)  -->
<!DOCTYPE svg PUBLIC "-//W3C//DTD SVG 1.1//EN" "http://www.w3.org/Graphics/SVG/1.1/DTD/svg11.dtd">
<svg version="1.1" id="Capa_1" xmlns="http://www.w3.org/2000/svg" xmlns:xlink="http://www.w3.org/1999/xlink" x="0px" y="0px"
	 width="45px" height="45px" viewBox="59.5 0 45 45" enable-background="new 59.5 0 45 45" xml:space="preserve">
<g>
	<path fill="#FFFFFF" d="M78.955,19.164c0,0.552-0.448,1-1,1H63.769c-0.552,0-1-0.448-1-1V4.978c0-0.552,0.448-1,1-1h14.187
		c0.552,0,1,0.448,1,1V19.164z"/>
	<path fill="#FFFFFF" d="M101.231,19.164c0,0.552-0.448,1-1,1H86.045c-0.552,0-1-0.448-1-1V4.978c0-0.552,0.448-1,1-1h14.187
		c0.552,0,1,0.448,1,1V19.164z"/>
	<path fill="#FFFFFF" d="M78.955,40.021c0,0.553-0.448,1-1,1H63.769c-0.552,0-1-0.447-1-1V25.836c0-0.553,0.448-1,1-1h14.187
		c0.552,0,1,0.447,1,1V40.021z"/>
	<path fill="#FFFFFF" d="M101.231,40.021c0,0.553-0.448,1-1,1H86.045c-0.552,0-1-0.447-1-1V25.836c0-0.553,0.448-1,1-1h14.187
		c0.552,0,1,0.447,1,1V40.021z"/>
</g>
</svg>
