<?xml version="1.0" encoding="utf-8"?>
<!-- Generator: Adobe Illustrator 16.0.0, SVG Export Plug-In . SVG Version: 6.00 Build 0)  -->
<!DOCTYPE svg PUBLIC "-//W3C//DTD SVG 1.1//EN" "http://www.w3.org/Graphics/SVG/1.1/DTD/svg11.dtd">
<svg version="1.1" id="Capa_1" xmlns="http://www.w3.org/2000/svg" xmlns:xlink="http://www.w3.org/1999/xlink" x="0px" y="0px"
	 width="32px" height="32px" viewBox="0 0 32 32" enable-background="new 0 0 32 32" xml:space="preserve">
<g>
	<path fill="#CCCCCC" d="M16,0C7.163,0,0,7.163,0,16s7.163,16,16,16s16-7.163,16-16S24.837,0,16,0z M16,29.5
		C8.544,29.5,2.5,23.455,2.5,16C2.5,8.544,8.544,2.5,16,2.5S29.5,8.544,29.5,16C29.5,23.455,23.456,29.5,16,29.5z"/>
	<path fill="#CCCCCC" d="M22.638,9.786c-4.132-0.277-9.021-0.354-13.226,0c-1.304,0.143-2.194,1.729-2.296,2.942
		c-0.203,2.533-0.203,3.972,0,6.511c0.102,1.204,0.969,2.797,2.296,2.969c4.254,0.278,9.122,0.316,13.226,0
		c1.283-0.226,2.196-1.765,2.296-2.969c0.205-2.539,0.205-4.138,0-6.671C24.834,11.361,24.115,9.842,22.638,9.786z M13.761,19.193
		v-6.494l5.664,3.247L13.761,19.193z"/>
</g>
</svg>
