<?xml version="1.0" encoding="utf-8"?>
<!-- Generator: Adobe Illustrator 16.0.0, SVG Export Plug-In . SVG Version: 6.00 Build 0)  -->
<!DOCTYPE svg PUBLIC "-//W3C//DTD SVG 1.1//EN" "http://www.w3.org/Graphics/SVG/1.1/DTD/svg11.dtd">
<svg version="1.1" id="Capa_1" xmlns="http://www.w3.org/2000/svg" xmlns:xlink="http://www.w3.org/1999/xlink" x="0px" y="0px"
	 width="182.75px" height="51.5px" viewBox="0 0 182.75 51.5" enable-background="new 0 0 182.75 51.5" xml:space="preserve">
<g>
	<path fill="#BCC1C8" d="M110.53,19.554c-0.087-2.134-0.087-2.134-1.923-2.134c-0.136,0-0.276,0.022-0.407-0.005
		c-1.492-0.299-1.756,0.419-1.739,1.768c0.067,5.958,0.028,11.917,0.026,17.876c0,3.233,0,3.197,3.311,3.178
		c0.856-0.005,1.063-0.255,1.052-1.077c-0.041-3.501-0.021-7.005-0.015-10.508c0.003-1.274,0.056-2.551,0.427-3.782
		c0.863-2.837,3.031-4.269,6.139-4.071c2.69,0.173,4.367,1.74,4.863,4.639c0.152,0.891,0.183,1.808,0.192,2.715
		c0.021,2.956,0.008,5.913,0.008,8.869c0,3.265,0,3.265,3.271,3.193c0.136-0.004,0.273-0.009,0.411,0
		c0.436,0.024,0.665-0.125,0.653-0.616c-0.131-5.181,0.411-10.388-0.288-15.537c-0.477-3.498-2.705-5.848-6.106-6.798
		C116.855,16.272,113.471,16.625,110.53,19.554"/>
	<path fill="#BCC1C8" d="M163.474,33.556c-0.288-0.714-0.465-1.118-0.617-1.532c-1.414-3.834-2.819-7.674-4.239-11.505
		c-1.164-3.141-1.172-3.082-4.467-3.134c-1.227-0.018-1.205,0.331-0.818,1.29c2.747,6.826,5.476,13.658,8.133,20.518
		c0.368,0.947,0.886,1.103,1.725,1.028c0.881-0.076,1.752,0.261,2.248-1.056c2.352-6.249,4.849-12.44,7.278-18.66
		c0.375-0.959,1.37-2.208,0.93-2.825c-0.547-0.765-2.026-0.111-3.081-0.278c-1.027-0.161-1.398,0.347-1.71,1.232
		C167.131,23.513,165.349,28.373,163.474,33.556"/>
	<path fill="#BCC1C8" d="M99.777,30.895c0-2.317-0.002-4.634,0-6.952c0-2.533,0.001-2.587,2.548-2.533
		c1.031,0.02,1.308-0.273,1.287-1.294c-0.056-2.634-0.006-2.636-2.707-2.698c-0.092-0.002-0.186-0.01-0.273,0
		c-0.641,0.069-0.891-0.192-0.868-0.855c0.043-1.179,0.012-2.363,0.012-3.545c0-3.362,0.002-3.34-3.407-3.208
		c-0.696,0.027-0.96,0.203-0.933,0.929c0.051,1.317,0.038,2.637,0.007,3.952c-0.02,0.855,0.348,1.881-0.169,2.514
		c-0.453,0.56-1.472,0.074-2.213,0.227c-1.354,0.277-0.613,1.38-0.657,2.069c-0.114,1.859-0.036,1.937,1.817,1.856
		c1.081-0.047,1.263,0.347,1.253,1.321c-0.049,4.771-0.022,9.542-0.022,14.314c0,3.354-0.002,3.327,3.371,3.243
		c0.798-0.021,0.98-0.273,0.97-1.024C99.752,36.439,99.775,33.667,99.777,30.895"/>
	<path fill="#BCC1C8" d="M60.165,37.384c-5.186,5.299-12.826,3.753-16.388,0.07c-4.362-4.509-4.598-12.073-0.532-16.789
		c3.832-4.445,11.072-5.496,16.774-0.562v-7.163c0-3.179,0-3.136,3.209-3.141c0.956-0.003,1.089,0.345,1.085,1.174
		c-0.026,9.366-0.026,18.73,0,28.095c0.002,0.84-0.146,1.176-1.092,1.169C60.446,40.22,60.446,40.268,60.165,37.384 M60.268,28.596
		c0.033-4.369-3.342-7.766-7.752-7.801c-4.481-0.039-7.825,3.28-7.868,7.809c-0.042,4.615,3.286,8.199,7.658,8.248
		C56.798,36.901,60.231,33.338,60.268,28.596"/>
	<path fill="#BCC1C8" d="M81.59,30.664c-2.818,0-5.637,0.02-8.455-0.012c-0.802-0.008-1.048,0.126-0.714,0.987
		c1.1,2.805,3.008,4.629,6.025,5.105c2.898,0.457,5.353-0.453,7.013-2.894c0.768-1.128,1.726-0.746,2.646-0.777
		c0.697-0.022,1.735-0.375,2.026,0.18c0.324,0.619-0.402,1.403-0.799,2.049c-2.728,4.442-7.943,6.487-12.989,5.114
		c-4.75-1.296-8.409-6.01-8.521-10.989c-0.146-6.385,3.758-11.532,9.563-12.612c7.72-1.437,14.865,5.449,13.688,13.149
		c-0.116,0.765-0.527,0.699-1.028,0.699C87.228,30.662,84.408,30.664,81.59,30.664 M79.582,27.379c1.954,0,3.909,0.002,5.862,0
		c1.452-0.001,1.546-0.132,1.14-1.552c-0.878-3.063-4.087-5.357-7.339-5.24c-3.518,0.127-6.216,2.423-6.952,5.825
		c-0.19,0.882,0.146,0.987,0.883,0.978C75.311,27.358,77.447,27.377,79.582,27.379"/>
	<path fill="#BCC1C8" d="M141.329,40.812c-6.961-0.105-12.224-5.487-12.134-12.407c0.085-6.459,5.616-11.664,12.344-11.615
		c7.01,0.052,12.43,5.438,12.307,12.232C153.727,35.609,148.095,40.913,141.329,40.812 M141.488,20.795
		c-4.488,0.006-8.032,3.571-8.016,8.06c0.015,4.382,3.601,7.979,7.975,7.999c4.511,0.021,8.092-3.601,8.069-8.163
		C149.493,24.301,145.922,20.789,141.488,20.795"/>
	<path fill="#BCC1C8" d="M110.53,19.554c2.94-2.929,6.325-3.281,9.875-2.291c3.401,0.95,5.63,3.3,6.106,6.798
		c0.699,5.149,0.157,10.356,0.288,15.537c0.012,0.491-0.218,0.641-0.653,0.616c-0.138-0.009-0.275-0.004-0.411,0
		c-3.271,0.071-3.271,0.071-3.271-3.193c0-2.956,0.013-5.913-0.008-8.869c-0.01-0.907-0.04-1.824-0.192-2.715
		c-0.496-2.899-2.173-4.466-4.863-4.639c-3.107-0.198-5.275,1.234-6.139,4.071c-0.371,1.231-0.424,2.508-0.427,3.782
		c-0.007,3.503-0.026,7.007,0.015,10.508c0.012,0.822-0.195,1.072-1.052,1.077c-3.311,0.02-3.311,0.056-3.311-3.178
		c0.002-5.959,0.041-11.918-0.026-17.876c-0.017-1.349,0.247-2.067,1.739-1.768c0.131,0.027,0.271,0.005,0.407,0.005
		C110.443,17.419,110.443,17.419,110.53,19.554"/>
	<path fill="#BCC1C8" d="M163.474,33.556c1.875-5.183,3.657-10.042,5.381-14.922c0.312-0.885,0.683-1.393,1.71-1.232
		c1.055,0.167,2.534-0.486,3.081,0.278c0.44,0.617-0.555,1.866-0.93,2.825c-2.43,6.22-4.927,12.411-7.278,18.66
		c-0.496,1.316-1.367,0.979-2.248,1.056c-0.839,0.074-1.356-0.081-1.725-1.028c-2.657-6.859-5.386-13.692-8.133-20.518
		c-0.387-0.959-0.408-1.308,0.818-1.29c3.295,0.052,3.303-0.007,4.467,3.134c1.42,3.832,2.825,7.671,4.239,11.505
		C163.009,32.438,163.186,32.842,163.474,33.556"/>
	<path fill="#BCC1C8" d="M99.775,30.895c0,2.772-0.023,5.545,0.017,8.315c0.011,0.751-0.172,1.004-0.97,1.024
		c-3.373,0.084-3.371,0.111-3.371-3.243c0-4.771-0.026-9.543,0.022-14.314c0.01-0.974-0.172-1.368-1.254-1.321
		c-1.853,0.08-1.931,0.003-1.816-1.856c0.044-0.689-0.696-1.792,0.657-2.069c0.739-0.153,1.76,0.333,2.213-0.227
		c0.517-0.632,0.149-1.658,0.169-2.514c0.031-1.315,0.046-2.635-0.007-3.952c-0.027-0.726,0.236-0.902,0.933-0.929
		c3.409-0.132,3.407-0.154,3.407,3.208c0,1.182,0.031,2.366-0.012,3.545c-0.024,0.663,0.228,0.924,0.868,0.855
		c0.088-0.01,0.182-0.002,0.273,0c2.701,0.062,2.651,0.064,2.707,2.698c0.021,1.021-0.256,1.314-1.287,1.294
		c-2.547-0.054-2.548,0-2.548,2.533C99.775,26.261,99.777,28.578,99.775,30.895"/>
	<path fill="#BCC1C8" d="M11.352,21.349l-0.134-0.01l-0.136,0.001c0.041-0.439,0.357-0.691,0.648-0.959
		c0.064,0.065,0.129,0.128,0.198,0.185C11.858,20.918,11.846,21.313,11.352,21.349"/>
	<path fill="#BCC1C8" d="M11.73,20.382c0.069-0.091,0.138-0.179,0.205-0.27c0.074,0.052,0.149,0.102,0.225,0.155
		c-0.077,0.101-0.154,0.199-0.233,0.299C11.859,20.508,11.794,20.448,11.73,20.382"/>
	<path fill="#BCC1C8" d="M11.73,20.382c-0.292,0.269-0.607,0.52-0.648,0.957c-2.002,2.99-2.491,6.298-1.778,9.741
		c1.126,5.442,5.302,9.461,10.599,10.421c5.53,1.003,11.023-1.302,13.92-6.124c2.371-3.95,2.878-8.145,0.712-12.422
		c-0.825-2.311-2.394-4.036-4.337-5.455c-5.71-4.167-14.483-2.909-18.263,2.613C11.868,20.203,11.799,20.292,11.73,20.382"/>
	<path fill="#BCC1C8" d="M11.935,20.112c3.779-5.52,12.555-6.778,18.263-2.613c1.944,1.42,3.512,3.144,4.337,5.456
		c0.035,0.358,0.069,0.716,0.104,1.073c0.234,2.373,0.639,4.77,0.02,7.12c-1.268,4.817-4.369,8.047-9.096,9.478
		c-5.67,1.715-12.317-1.455-14.472-7.237c-1.397-3.748-0.822-7.308-0.083-10.966c-0.102,1.867,0.342,3.694,0.316,5.564
		c-0.067,4.601,1.716,8.146,6.004,10.283c2.894,1.443,5.756,1.89,8.81,0.565c2.779-1.205,4.938-2.997,6.263-5.785
		c1.109-2.335,1.307-4.873,1.823-7.339c0.221-1.058-0.152-2.059-0.609-3.018c-0.858-1.806-2.247-3.28-3.794-4.35
		c-3.907-2.699-8.241-3.327-12.772-1.601c-1.932,0.736-3.437,2.103-4.888,3.524C12.083,20.216,12.008,20.165,11.935,20.112"/>
	<path fill="#BCC1C8" d="M11.006,22.423c-0.739,3.659-1.313,7.217,0.083,10.965c2.155,5.782,8.801,8.953,14.472,7.236
		c4.728-1.43,7.829-4.661,9.095-9.479c0.621-2.348,0.216-4.745-0.018-7.117c-0.035-0.359-0.069-0.716-0.104-1.075
		c2.167,4.277,1.657,8.472-0.714,12.422c-2.895,4.822-8.389,7.127-13.918,6.125c-5.299-0.961-9.473-4.979-10.601-10.422
		c-0.711-3.442-0.223-6.751,1.78-9.74l0.136-0.002l0.134,0.01C11.235,21.707,11.121,22.066,11.006,22.423"/>
	<path fill="#BCC1C8" d="M11.925,20.567c0.08-0.101,0.157-0.2,0.234-0.3c1.451-1.422,2.956-2.789,4.888-3.525
		c4.531-1.725,8.865-1.098,12.772,1.602c1.547,1.07,2.936,2.543,3.794,4.347c0.457,0.961,0.831,1.963,0.609,3.021
		c-0.516,2.467-0.712,5.001-1.823,7.338c-1.325,2.788-3.484,4.58-6.263,5.783c-3.054,1.326-5.916,0.88-8.81-0.563
		c-4.29-2.135-6.071-5.682-6.004-10.283c0.028-1.872-0.417-3.699-0.316-5.563c0.115-0.357,0.229-0.716,0.345-1.073
		C11.846,21.312,11.856,20.918,11.925,20.567 M15.168,28.861c-0.833,3.978,3.856,7.078,6.667,7.281
		c3.214,0.232,7.692-3.639,7.566-6.411c-0.246-5.454-3.43-7.75-7.265-8.31c-1.705-0.248-3.485,0.902-4.728,1.955
		C15.835,24.707,14.733,26.664,15.168,28.861"/>
	<path fill="#BCC1C8" d="M15.168,28.861c-0.436-2.197,0.667-4.154,2.24-5.485c1.243-1.053,3.023-2.203,4.728-1.955
		c3.835,0.56,7.02,2.856,7.265,8.31c0.126,2.772-4.353,6.644-7.566,6.411C19.025,35.938,14.335,32.839,15.168,28.861"/>
</g>
</svg>
