<?xml version="1.0" encoding="utf-8"?>
<!-- Generator: Adobe Illustrator 16.0.0, SVG Export Plug-In . SVG Version: 6.00 Build 0)  -->
<!DOCTYPE svg PUBLIC "-//W3C//DTD SVG 1.1//EN" "http://www.w3.org/Graphics/SVG/1.1/DTD/svg11.dtd">
<svg version="1.1" id="Capa_1" xmlns="http://www.w3.org/2000/svg" xmlns:xlink="http://www.w3.org/1999/xlink" x="0px" y="0px"
	 width="182.75px" height="51.5px" viewBox="0 0 182.75 51.5" enable-background="new 0 0 182.75 51.5" xml:space="preserve">
<g>
	<path fill-rule="evenodd" clip-rule="evenodd" fill="#BCC1C8" d="M62.87,6.805c0.627,6.989,4.252,13.365,9.932,17.48
		c-0.21,6.54-3.715,12.525-9.314,15.896c-6.37-2.95-13.706-3.002-20.113-0.134c-5.556-3.454-8.981-9.483-9.106-16.019
		C40.01,19.987,43.72,13.661,44.445,6.68C50.206,3.592,57.147,3.641,62.87,6.805 M63.481,40.181
		c-4.886-10.513-5.116-22.693-0.616-33.38c-6.66,9.491-17.091,15.773-28.597,17.228"/>
	<path fill-rule="evenodd" clip-rule="evenodd" fill="#BCC1C8" d="M102.377,9.599L85.196,9.658L79.48,31.98
		c-1.136,4.52,0.095,6.578,3.765,6.739l11.738-0.035l1.512-6.332l-7.548,0.042l1.571-6.174l7.57-0.028l1.601-5.942l-7.571,0.064
		l1.259-5.214l7.657-0.027L102.377,9.599z"/>
	<path fill-rule="evenodd" clip-rule="evenodd" fill="#BCC1C8" d="M148.481,9.447l-8.759,0.03c-4.354,0.018-7.134,3.495-7.271,7.56
		c-0.316,9.458-1.489,11.956-3.297,15.035c-1.51,2.494-3.706,4.902-5.759,6.516l11.652-0.035c4.158-3.514,5.891-8.32,6.164-14.208
		c0.092-5.236,0.317-9.41,3.031-9.413l2.724-0.011L148.481,9.447z"/>
	<path fill-rule="evenodd" clip-rule="evenodd" fill="#BCC1C8" d="M106.205,9.589l-7.31,29.08l19.735,0.02
		c9.216-9.319,13.05-16.055,5.052-17.11c5.99-5.672,8.8-10.309,4.513-11.743c-0.78-0.264-1.377-0.235-2.188-0.235L106.205,9.589z
		 M112.143,24.936l-2.641,10.704c0,0,3.876-3.492,5.447-5.334c1.733-2.041,2.104-5.314-0.41-5.361
		C112.656,24.945,112.143,24.936,112.143,24.936 M114.898,14.432l-1.89,7.783c0,0,2.897-2.034,4.197-3.39
		c1.438-1.503,2.283-4.411,0.117-4.449C115.706,14.386,114.898,14.432,114.898,14.432"/>
	<polygon fill="#BCC1C8" points="100.776,47.014 100.776,41.602 101.493,41.602 101.493,46.379 104.16,46.379 104.16,47.014 	"/>
	<path fill="#BCC1C8" d="M107.56,46.532c-0.246,0.21-0.485,0.355-0.711,0.442c-0.227,0.087-0.47,0.128-0.731,0.128
		c-0.433,0-0.76-0.104-0.992-0.316c-0.232-0.207-0.347-0.479-0.347-0.804c0-0.192,0.039-0.369,0.132-0.525
		c0.086-0.161,0.201-0.29,0.341-0.384c0.142-0.1,0.304-0.169,0.479-0.216c0.129-0.037,0.33-0.071,0.591-0.104
		c0.537-0.064,0.932-0.14,1.187-0.229c0-0.091,0.003-0.146,0.003-0.173c0-0.271-0.062-0.462-0.188-0.572
		c-0.171-0.152-0.423-0.226-0.759-0.226c-0.311,0-0.543,0.059-0.689,0.165c-0.15,0.109-0.261,0.307-0.332,0.582l-0.649-0.09
		c0.054-0.276,0.154-0.499,0.291-0.671c0.133-0.171,0.33-0.304,0.585-0.4c0.258-0.087,0.555-0.135,0.893-0.135
		s0.604,0.04,0.814,0.119c0.21,0.076,0.362,0.177,0.462,0.296c0.101,0.12,0.165,0.271,0.209,0.454
		c0.018,0.112,0.029,0.313,0.029,0.611v0.883c0,0.617,0.015,1.012,0.045,1.173c0.029,0.165,0.085,0.323,0.169,0.475h-0.695
		C107.627,46.878,107.582,46.713,107.56,46.532 M107.507,45.048c-0.241,0.097-0.604,0.18-1.09,0.248
		c-0.271,0.043-0.464,0.085-0.575,0.133c-0.115,0.052-0.202,0.122-0.262,0.219c-0.066,0.096-0.094,0.198-0.094,0.313
		c0,0.177,0.068,0.326,0.201,0.444c0.138,0.12,0.33,0.179,0.589,0.179c0.257,0,0.483-0.055,0.682-0.166
		c0.199-0.111,0.346-0.268,0.442-0.462c0.071-0.15,0.106-0.368,0.106-0.666V45.048z"/>
	<path fill="#BCC1C8" d="M110.736,46.421l0.094,0.588c-0.187,0.039-0.354,0.059-0.5,0.059c-0.243,0-0.428-0.039-0.56-0.113
		c-0.133-0.078-0.229-0.177-0.285-0.304c-0.054-0.122-0.081-0.388-0.081-0.784v-2.255h-0.484v-0.521h0.484v-0.969l0.661-0.397v1.366
		h0.671v0.521h-0.671v2.292c0,0.188,0.013,0.312,0.035,0.366c0.025,0.056,0.062,0.098,0.115,0.13
		c0.056,0.031,0.129,0.044,0.227,0.044C110.52,46.443,110.615,46.438,110.736,46.421"/>
	<path fill="#BCC1C8" d="M111.464,41.602h0.669v0.763h-0.669V41.602z M111.464,43.089h0.669v3.925h-0.669V43.089z"/>
	<path fill="#BCC1C8" d="M113.219,47.014v-3.923h0.596v0.557c0.291-0.43,0.705-0.643,1.251-0.643c0.235,0,0.453,0.041,0.649,0.125
		c0.198,0.088,0.348,0.2,0.447,0.334c0.098,0.142,0.165,0.304,0.204,0.493c0.025,0.123,0.039,0.343,0.039,0.649v2.407h-0.666v-2.381
		c0-0.276-0.024-0.478-0.075-0.611c-0.056-0.133-0.146-0.244-0.275-0.32c-0.136-0.079-0.288-0.119-0.466-0.119
		c-0.283,0-0.526,0.087-0.732,0.267c-0.202,0.183-0.309,0.523-0.309,1.023v2.142H113.219z"/>
	<path fill="#BCC1C8" d="M117.251,45.054c0-0.725,0.203-1.265,0.607-1.612c0.333-0.292,0.748-0.437,1.233-0.437
		c0.538,0,0.977,0.177,1.321,0.529c0.34,0.355,0.511,0.845,0.511,1.465c0,0.503-0.075,0.902-0.229,1.188
		c-0.147,0.293-0.367,0.516-0.657,0.677c-0.291,0.157-0.604,0.238-0.946,0.238c-0.55,0-0.996-0.174-1.334-0.523
		C117.425,46.225,117.251,45.719,117.251,45.054 M117.935,45.054c0,0.507,0.111,0.876,0.329,1.125
		c0.222,0.25,0.495,0.382,0.828,0.382c0.332,0,0.604-0.132,0.823-0.382c0.22-0.249,0.327-0.631,0.327-1.147
		c0-0.485-0.109-0.852-0.33-1.102c-0.218-0.25-0.494-0.376-0.82-0.376c-0.333,0-0.606,0.126-0.828,0.375
		C118.046,44.178,117.935,44.553,117.935,45.054"/>
	<path fill="#BCC1C8" d="M124.338,46.532c-0.243,0.21-0.481,0.355-0.709,0.442c-0.229,0.087-0.471,0.128-0.729,0.128
		c-0.436,0-0.764-0.104-0.998-0.316c-0.231-0.207-0.348-0.479-0.348-0.804c0-0.192,0.047-0.369,0.133-0.525
		c0.088-0.161,0.203-0.29,0.344-0.384c0.141-0.1,0.303-0.169,0.479-0.216c0.132-0.037,0.328-0.071,0.588-0.104
		c0.537-0.064,0.935-0.14,1.188-0.229c0.002-0.091,0.004-0.146,0.004-0.173c0-0.271-0.062-0.462-0.189-0.572
		c-0.168-0.152-0.422-0.226-0.757-0.226c-0.313,0-0.544,0.059-0.696,0.165c-0.146,0.109-0.255,0.307-0.325,0.582l-0.651-0.09
		c0.063-0.276,0.156-0.499,0.292-0.671c0.133-0.171,0.329-0.304,0.585-0.4c0.258-0.087,0.553-0.135,0.893-0.135
		c0.337,0,0.606,0.04,0.818,0.119c0.207,0.076,0.361,0.177,0.458,0.296c0.101,0.12,0.168,0.271,0.205,0.454
		c0.027,0.112,0.035,0.313,0.035,0.611v0.883c0,0.617,0.013,1.012,0.044,1.173c0.027,0.165,0.081,0.323,0.169,0.475h-0.696
		C124.405,46.878,124.36,46.713,124.338,46.532 M124.285,45.048c-0.244,0.097-0.603,0.18-1.085,0.248
		c-0.275,0.043-0.469,0.085-0.583,0.133c-0.113,0.052-0.2,0.122-0.262,0.219c-0.062,0.096-0.09,0.198-0.09,0.313
		c0,0.177,0.067,0.326,0.198,0.444c0.138,0.12,0.331,0.179,0.594,0.179c0.252,0,0.481-0.055,0.682-0.166
		c0.194-0.111,0.343-0.268,0.438-0.462c0.073-0.15,0.108-0.368,0.108-0.666V45.048z"/>
	<path fill="#BCC1C8" d="M126.063,47.014v-3.923h0.595v0.553c0.121-0.193,0.286-0.348,0.489-0.465
		c0.209-0.113,0.436-0.174,0.698-0.174c0.288,0,0.529,0.061,0.715,0.181c0.187,0.12,0.313,0.291,0.394,0.505
		c0.311-0.458,0.714-0.686,1.212-0.686c0.387,0,0.686,0.108,0.896,0.325c0.211,0.213,0.315,0.544,0.315,0.993v2.69h-0.661v-2.47
		c0-0.264-0.024-0.456-0.066-0.574c-0.044-0.113-0.118-0.212-0.233-0.283c-0.113-0.069-0.246-0.104-0.398-0.104
		c-0.277,0-0.504,0.091-0.688,0.274c-0.18,0.185-0.271,0.476-0.271,0.88v2.277h-0.666v-2.549c0-0.293-0.054-0.514-0.16-0.66
		c-0.108-0.151-0.288-0.223-0.534-0.223c-0.188,0-0.358,0.049-0.521,0.144c-0.156,0.1-0.274,0.244-0.343,0.434
		c-0.071,0.193-0.106,0.461-0.106,0.82v2.034H126.063z"/>
	<path fill="#BCC1C8" d="M135.122,45.752l0.688,0.088c-0.108,0.397-0.306,0.711-0.604,0.928c-0.289,0.223-0.664,0.335-1.123,0.335
		c-0.57,0-1.026-0.177-1.359-0.53c-0.339-0.353-0.507-0.849-0.507-1.482c0-0.659,0.171-1.172,0.51-1.537
		c0.34-0.367,0.78-0.548,1.32-0.548c0.523,0,0.952,0.177,1.285,0.535c0.333,0.359,0.503,0.858,0.503,1.508
		c0,0.042-0.003,0.099-0.005,0.175h-2.928c0.024,0.43,0.149,0.763,0.367,0.994c0.218,0.224,0.489,0.343,0.816,0.343
		c0.246,0,0.456-0.066,0.627-0.193C134.887,46.237,135.023,46.029,135.122,45.752 M132.938,44.678h2.188
		c-0.024-0.328-0.106-0.577-0.246-0.743c-0.213-0.255-0.489-0.382-0.825-0.382c-0.306,0-0.563,0.102-0.77,0.305
		C133.079,44.063,132.961,44.333,132.938,44.678 M133.658,42.604l0.491-1.031h0.871l-0.813,1.031H133.658z"/>
	<path fill="#BCC1C8" d="M136.714,47.014v-3.923h0.597v0.596c0.155-0.278,0.293-0.46,0.422-0.55
		c0.132-0.088,0.271-0.132,0.429-0.132c0.224,0,0.449,0.071,0.683,0.213l-0.229,0.616c-0.162-0.092-0.322-0.144-0.487-0.144
		c-0.144,0-0.276,0.047-0.395,0.134c-0.111,0.085-0.197,0.208-0.246,0.363c-0.072,0.235-0.109,0.492-0.109,0.775v2.051H136.714z"/>
	<path fill="#BCC1C8" d="M139.318,41.602h0.667v0.763h-0.667V41.602z M139.318,43.089h0.667v3.925h-0.667V43.089z"/>
	<path fill="#BCC1C8" d="M143.629,45.575l0.655,0.089c-0.07,0.449-0.258,0.805-0.55,1.055c-0.293,0.258-0.655,0.384-1.085,0.384
		c-0.534,0-0.968-0.175-1.294-0.523c-0.323-0.353-0.487-0.856-0.487-1.509c0-0.425,0.068-0.795,0.209-1.113
		c0.143-0.316,0.353-0.556,0.644-0.714c0.285-0.158,0.595-0.238,0.935-0.238c0.424,0,0.772,0.108,1.044,0.325
		c0.271,0.213,0.441,0.518,0.521,0.918l-0.644,0.097c-0.065-0.265-0.175-0.461-0.329-0.594c-0.156-0.13-0.347-0.198-0.57-0.198
		c-0.333,0-0.604,0.12-0.812,0.36c-0.21,0.239-0.316,0.62-0.316,1.138c0,0.524,0.101,0.907,0.308,1.15
		c0.199,0.236,0.459,0.359,0.786,0.359c0.259,0,0.479-0.085,0.655-0.242C143.47,46.156,143.581,45.911,143.629,45.575"/>
	<path fill="#BCC1C8" d="M147.482,46.532c-0.243,0.21-0.481,0.355-0.709,0.442c-0.229,0.087-0.471,0.128-0.729,0.128
		c-0.434,0-0.764-0.104-0.995-0.316c-0.234-0.207-0.35-0.479-0.35-0.804c0-0.192,0.044-0.369,0.133-0.525
		c0.087-0.161,0.203-0.29,0.343-0.384c0.142-0.1,0.304-0.169,0.479-0.216c0.128-0.037,0.326-0.071,0.592-0.104
		c0.535-0.064,0.934-0.14,1.185-0.229c0.002-0.091,0.002-0.146,0.002-0.173c0-0.271-0.06-0.462-0.186-0.572
		c-0.172-0.152-0.423-0.226-0.757-0.226c-0.313,0-0.546,0.059-0.691,0.165c-0.149,0.109-0.261,0.307-0.332,0.582l-0.651-0.09
		c0.06-0.276,0.156-0.499,0.292-0.671c0.138-0.171,0.33-0.304,0.589-0.4c0.256-0.087,0.552-0.135,0.891-0.135
		c0.334,0,0.605,0.04,0.815,0.119c0.208,0.076,0.361,0.177,0.462,0.296c0.101,0.12,0.168,0.271,0.208,0.454
		c0.02,0.112,0.029,0.313,0.029,0.611v0.883c0,0.617,0.015,1.012,0.044,1.173c0.029,0.165,0.085,0.323,0.169,0.475h-0.696
		C147.55,46.878,147.502,46.713,147.482,46.532 M147.43,45.048c-0.239,0.097-0.604,0.18-1.085,0.248
		c-0.272,0.043-0.463,0.085-0.579,0.133c-0.112,0.052-0.203,0.122-0.265,0.219c-0.059,0.096-0.091,0.198-0.091,0.313
		c0,0.177,0.068,0.326,0.2,0.444c0.136,0.12,0.331,0.179,0.591,0.179c0.259,0,0.483-0.055,0.681-0.166
		c0.202-0.111,0.349-0.268,0.442-0.462c0.071-0.15,0.105-0.368,0.105-0.666V45.048z"/>
</g>
</svg>
