<?xml version="1.0" encoding="utf-8"?>
<!-- Generator: Adobe Illustrator 16.0.0, SVG Export Plug-In . SVG Version: 6.00 Build 0)  -->
<!DOCTYPE svg PUBLIC "-//W3C//DTD SVG 1.1//EN" "http://www.w3.org/Graphics/SVG/1.1/DTD/svg11.dtd">
<svg version="1.1" id="Capa_1" xmlns="http://www.w3.org/2000/svg" xmlns:xlink="http://www.w3.org/1999/xlink" x="0px" y="0px"
	 width="182.75px" height="51.5px" viewBox="0 0 182.75 51.5" enable-background="new 0 0 182.75 51.5" xml:space="preserve">
<g>
	<path fill="#BCC1C8" d="M43.959,31.579c0.468,0.148,0.95,0.207,1.442,0.207c2.848-0.007,5.691-0.003,8.536-0.003
		c2.917,0,5.833-0.013,8.75,0.004c0.728,0,1.215-0.307,1.522-0.94c0.26-0.533,0.501-1.074,0.755-1.604
		c0.479-0.999,0.332-1.232-0.779-1.232H50.547c-0.771,0-0.952-0.33-0.57-0.999c0.332-0.58,0.834-0.771,1.488-0.768
		c4.294,0.009,8.589,0.004,12.881,0.004c0.371,0,0.744,0.001,1.111-0.007c0.542-0.019,0.984-0.233,1.235-0.732
		c0.287-0.584,0.576-1.17,0.828-1.77c0.233-0.557,0.024-0.854-0.576-0.887c-0.102-0.004-0.206,0-0.31,0H53.171
		c-0.163,0-0.329,0.004-0.486-0.017c-0.449-0.056-0.581-0.294-0.418-0.716c0.273-0.697,0.763-1.026,1.549-1.026h10.127
		c1.213,0,2.431-0.003,3.643,0c0.79,0.001,1.361-0.315,1.677-1.07c0.198-0.477,0.437-0.94,0.656-1.41
		c0.454-0.962,0.267-1.258-0.797-1.258c-5.422,0-10.843,0.003-16.262-0.002c-0.444,0-0.89,0.01-1.328,0.079
		c-2.083,0.324-3.642,1.443-4.592,3.278c-1.054,2.04-1.975,4.145-2.922,6.236c-0.43,0.938-0.983,1.83-1.138,2.878
		C42.76,30.652,43.164,31.335,43.959,31.579"/>
	<path fill="#BCC1C8" d="M67.427,29.456c-0.312,1.194,0.215,2.015,1.427,2.226c0.365,0.063,0.73,0.098,1.106,0.098
		c2.813-0.007,5.625-0.007,8.442-0.007c2.902,0,5.808-0.011,8.709,0.014c0.768,0.001,1.271-0.314,1.59-0.978
		c0.289-0.601,0.57-1.206,0.834-1.818c0.297-0.702,0.122-0.959-0.635-0.972c-0.085-0.003-0.177,0-0.265,0H75.172
		c-0.163,0-0.329,0.008-0.49-0.012c-0.373-0.049-0.509-0.258-0.412-0.621c0.174-0.675,0.81-1.171,1.508-1.168
		c2.268,0.005,4.534,0.024,6.799,0.026c2.382,0.004,4.769,0,7.153,0.004c0.533,0,1.046-0.105,1.319-0.583
		c0.363-0.642,0.677-1.318,0.954-2.002c0.203-0.518-0.018-0.775-0.591-0.8c-0.16-0.007-0.323-0.007-0.486-0.007H77.773
		c-0.179,0-0.355,0.008-0.534-0.004c-0.542-0.041-0.712-0.326-0.483-0.805c0.305-0.625,0.757-0.966,1.499-0.965
		c3.452,0.022,6.906,0.007,10.355,0.007h3.422c0.788,0.004,1.362-0.3,1.678-1.063c0.221-0.53,0.494-1.041,0.729-1.569
		c0.363-0.791,0.163-1.097-0.721-1.097c-5.597-0.001-11.195-0.025-16.795,0.015c-2.633,0.015-4.531,1.33-5.678,3.667
		c-0.984,2.011-1.902,4.053-2.83,6.083C68.062,27.893,67.642,28.631,67.427,29.456"/>
	<path fill="#BCC1C8" d="M138.87,9.102c-1.602-3.468-14.34-14.664-62.627,6.265c20.501-1.999,38.59-3.176,41.673,2.809
		c0.561,1.125,2.9,4.992-4.118,12.693c-0.061-0.166-0.132-0.317-0.218-0.456c-2.175-3.535-4.344-7.069-6.522-10.595
		c-1.023-1.65-2.49-2.527-4.476-2.464c-0.797,0.023-1.602,0.027-2.397,0c-1.857-0.069-3.083,0.815-3.841,2.461
		c-1.104,2.394-2.238,4.771-3.327,7.171c-0.482,1.065-1.081,2.082-1.4,3.213c-0.277,0.97,0.138,1.567,1.141,1.574
		c3.774,0.015,7.555,0.012,11.329,0c0.773,0,0.976-0.397,0.576-1.068c-0.357-0.596-0.76-1.17-1.077-1.787
		c-0.349-0.684-0.863-0.939-1.613-0.912c-1.126,0.03-2.25,0.013-3.379,0c-0.477,0-0.634-0.227-0.505-0.688
		c0.026-0.098,0.069-0.195,0.112-0.289c0.695-1.484,1.396-2.975,2.092-4.463c0.097-0.199,0.201-0.398,0.326-0.579
		c0.215-0.305,0.362-0.293,0.476,0.057c0.093,0.271,0.231,0.513,0.37,0.755c1.714,2.858,3.433,5.711,5.139,8.573
		c0.184,0.311,0.401,0.416,0.75,0.413c1.851-0.009,3.707-0.004,5.588-0.004c-4.168,4.303-11.165,9.721-22.718,16.432
		c6.569,1.333,13.5-2.338,13.5-2.338S147.011,26.615,138.87,9.102 M123.01,18.615c-1.42-10.04-22.753-7.466-22.753-7.466
		c21.979-3.344,25.979,2.172,26.666,5.333c1.917,8.873-10.621,17.196-19.998,23.732C123.81,28.129,123.542,20.572,123.01,18.615
		 M121.321,33.105c2.669-2.403,30.549-29.777-19.169-25.067c0,0,27.376-6.515,32.592,3.615
		C135.927,13.669,137.517,20.984,121.321,33.105"/>
</g>
</svg>
