<?xml version="1.0" encoding="utf-8"?>
<!-- Generator: Adobe Illustrator 16.0.0, SVG Export Plug-In . SVG Version: 6.00 Build 0)  -->
<!DOCTYPE svg PUBLIC "-//W3C//DTD SVG 1.1//EN" "http://www.w3.org/Graphics/SVG/1.1/DTD/svg11.dtd">
<svg version="1.1" id="Capa_1" xmlns="http://www.w3.org/2000/svg" xmlns:xlink="http://www.w3.org/1999/xlink" x="0px" y="0px"
	 width="182.75px" height="51.5px" viewBox="0 0 182.75 51.5" enable-background="new 0 0 182.75 51.5" xml:space="preserve">
<g>
	<polygon fill="#BCC1C8" points="68.889,10.601 61.89,10.601 54.429,18.35 54.429,10.019 48.515,10.019 48.515,32.146 
		54.429,32.146 54.429,24.728 56.721,22.519 62.641,32.146 69.805,32.146 60.764,18.52 	"/>
	<path fill="#BCC1C8" d="M81.474,10.35c-0.696,0.223-1.345,0.534-1.956,0.94c-0.614,0.398-1.155,0.887-1.628,1.453
		c-0.47,0.571-0.845,1.19-1.125,1.858h-0.083v-4.001h-5.625v21.544h5.917v-9.711c0-0.972,0.096-1.876,0.291-2.708
		c0.191-0.833,0.522-1.563,0.977-2.19c0.459-0.623,1.065-1.118,1.813-1.477c0.751-0.359,1.667-0.541,2.752-0.541
		c0.36,0,0.736,0.02,1.125,0.063c0.389,0.042,0.72,0.09,1.001,0.148v-5.504c-0.476-0.14-0.904-0.207-1.292-0.207
		C82.894,10.019,82.167,10.129,81.474,10.35"/>
	<polygon fill="#BCC1C8" points="33.797,21.08 37.924,25.212 42.053,21.08 37.924,16.954 	"/>
	<polygon fill="#BCC1C8" points="33.797,12.821 29.663,8.691 21.407,16.954 17.276,21.08 29.663,33.467 33.797,29.337 25.54,21.08 	
		"/>
	<polygon fill="#BCC1C8" points="6.856,21.08 10.981,25.212 15.112,21.08 10.981,16.954 	"/>
	<path fill="#BCC1C8" d="M104.269,13.122c-0.974-0.984-2.144-1.751-3.517-2.295c-1.378-0.541-2.912-0.809-4.606-0.809
		c-1.695,0-3.223,0.268-4.585,0.809c-1.36,0.543-2.532,1.311-3.506,2.295c-0.965,0.985-1.717,2.182-2.246,3.582
		c-0.533,1.403-0.793,2.965-0.793,4.691c0,1.72,0.26,3.28,0.793,4.665c0.529,1.394,1.281,2.577,2.246,3.564
		c0.974,0.985,2.146,1.743,3.506,2.27c1.362,0.527,2.89,0.792,4.585,0.792c1.694,0,3.229-0.265,4.606-0.792
		c1.373-0.526,2.543-1.284,3.517-2.27c0.974-0.988,1.726-2.171,2.252-3.564c0.524-1.385,0.791-2.945,0.791-4.665
		c0-1.727-0.267-3.288-0.791-4.691C105.994,15.304,105.242,14.107,104.269,13.122 M101.146,23.913
		c-0.169,0.821-0.452,1.557-0.856,2.212c-0.402,0.652-0.943,1.177-1.626,1.562c-0.679,0.391-1.52,0.581-2.518,0.581
		c-1.004,0-1.834-0.19-2.502-0.581c-0.666-0.384-1.201-0.91-1.604-1.562c-0.406-0.655-0.69-1.391-0.854-2.212
		c-0.175-0.817-0.253-1.657-0.253-2.517c0-0.864,0.078-1.708,0.253-2.549c0.163-0.828,0.447-1.565,0.854-2.202
		c0.402-0.642,0.938-1.161,1.604-1.564c0.668-0.404,1.498-0.606,2.502-0.606c0.998,0,1.839,0.203,2.518,0.606
		c0.683,0.403,1.224,0.922,1.626,1.564c0.404,0.637,0.688,1.375,0.856,2.202c0.167,0.84,0.247,1.685,0.247,2.549
		C101.393,22.255,101.313,23.096,101.146,23.913"/>
	<path fill="#BCC1C8" d="M151.107,13.122c-0.971-0.984-2.141-1.751-3.52-2.295c-1.373-0.541-2.912-0.809-4.606-0.809
		c-1.692,0-3.22,0.268-4.585,0.809c-1.358,0.543-2.526,1.311-3.494,2.295c-0.977,0.985-1.723,2.182-2.252,3.582
		c-0.53,1.403-0.794,2.965-0.794,4.691c0,1.72,0.264,3.28,0.794,4.665c0.529,1.394,1.275,2.577,2.252,3.564
		c0.968,0.985,2.136,1.743,3.494,2.27c1.365,0.527,2.893,0.792,4.585,0.792c1.694,0,3.233-0.265,4.606-0.792
		c1.379-0.526,2.549-1.284,3.52-2.27c0.971-0.988,1.723-2.171,2.252-3.564c0.53-1.385,0.794-2.945,0.794-4.665
		c0-1.727-0.264-3.288-0.794-4.691C152.83,15.304,152.078,14.107,151.107,13.122 M147.987,23.913
		c-0.169,0.821-0.455,1.557-0.856,2.212c-0.405,0.652-0.943,1.177-1.626,1.562c-0.679,0.391-1.522,0.581-2.523,0.581
		c-0.999,0-1.833-0.19-2.502-0.581c-0.663-0.384-1.195-0.91-1.603-1.562c-0.399-0.655-0.686-1.391-0.854-2.212
		c-0.167-0.817-0.247-1.657-0.247-2.517c0-0.864,0.08-1.708,0.247-2.549c0.169-0.828,0.455-1.565,0.854-2.202
		c0.407-0.642,0.939-1.161,1.603-1.564c0.669-0.404,1.503-0.606,2.502-0.606c1.001,0,1.845,0.203,2.523,0.606
		c0.683,0.403,1.221,0.922,1.626,1.564c0.401,0.637,0.688,1.375,0.856,2.202c0.164,0.84,0.247,1.685,0.247,2.549
		C148.234,22.255,148.151,23.096,147.987,23.913"/>
	<path fill="#BCC1C8" d="M174.871,22.706c-0.389-0.68-0.904-1.248-1.545-1.708c-0.638-0.462-1.37-0.827-2.183-1.103
		c-0.826-0.28-1.664-0.516-2.524-0.711c-0.834-0.191-1.652-0.375-2.462-0.541c-0.802-0.167-1.518-0.355-2.142-0.562
		c-0.627-0.207-1.129-0.482-1.522-0.814c-0.392-0.333-0.583-0.764-0.583-1.292c0-0.443,0.108-0.796,0.333-1.065
		c0.222-0.263,0.491-0.46,0.813-0.602c0.319-0.138,0.674-0.228,1.065-0.269c0.386-0.044,0.746-0.063,1.084-0.063
		c1.052,0,1.973,0.2,2.746,0.603c0.782,0.402,1.209,1.173,1.293,2.311h5.627c-0.113-1.332-0.452-2.434-1.021-3.312
		c-0.571-0.874-1.287-1.576-2.146-2.104c-0.863-0.524-1.839-0.903-2.94-1.126c-1.098-0.219-2.232-0.33-3.395-0.33
		c-1.168,0-2.308,0.103-3.417,0.31c-1.112,0.21-2.11,0.57-2.998,1.084c-0.891,0.516-1.608,1.216-2.152,2.104
		c-0.538,0.892-0.807,2.029-0.807,3.418c0,0.946,0.19,1.744,0.585,2.397c0.383,0.652,0.898,1.194,1.536,1.62
		c0.641,0.433,1.37,0.784,2.188,1.044c0.818,0.269,1.658,0.492,2.523,0.69c2.108,0.444,3.756,0.888,4.938,1.333
		c1.182,0.446,1.77,1.11,1.77,2c0,0.525-0.125,0.966-0.375,1.312c-0.246,0.352-0.563,0.628-0.935,0.833
		c-0.38,0.208-0.796,0.363-1.253,0.458c-0.455,0.1-0.896,0.15-1.31,0.15c-0.588,0-1.151-0.074-1.691-0.211
		c-0.541-0.143-1.021-0.355-1.435-0.644c-0.419-0.292-0.757-0.668-1.026-1.129c-0.261-0.456-0.394-1.002-0.394-1.647h-5.622
		c0.05,1.448,0.378,2.65,0.974,3.611c0.6,0.957,1.362,1.728,2.297,2.309c0.929,0.585,1.988,1.002,3.187,1.246
		c1.192,0.253,2.416,0.382,3.669,0.382c1.218,0,2.422-0.118,3.604-0.358c1.179-0.232,2.227-0.647,3.145-1.227
		c0.916-0.581,1.661-1.357,2.23-2.313c0.568-0.957,0.854-2.148,0.854-3.565C175.453,24.226,175.257,23.388,174.871,22.706"/>
	<path fill="#BCC1C8" d="M128.107,12.457c-0.586-0.767-1.385-1.366-2.396-1.792c-1.016-0.433-2.313-0.646-3.896-0.646
		c-1.251,0-2.475,0.283-3.67,0.856c-1.192,0.567-2.166,1.478-2.918,2.725h-0.119v-3h-5.63v21.546h5.916V20.851
		c0-2.195,0.363-3.769,1.087-4.728c0.719-0.961,1.889-1.438,3.5-1.438c1.415,0,2.405,0.436,2.957,1.312
		c0.558,0.875,0.835,2.204,0.835,3.979v12.17h5.918V18.894c0-1.333-0.119-2.552-0.354-3.646
		C129.1,14.15,128.689,13.221,128.107,12.457"/>
	<polygon fill="#BCC1C8" points="114.936,42.693 114.936,35.75 115.854,35.75 115.854,41.872 119.273,41.872 119.273,42.693 	"/>
	<path fill="#BCC1C8" d="M123.636,42.072c-0.315,0.271-0.618,0.462-0.912,0.571c-0.291,0.11-0.607,0.165-0.938,0.165
		c-0.555,0-0.979-0.136-1.275-0.402c-0.297-0.274-0.441-0.615-0.441-1.04c0-0.247,0.056-0.47,0.164-0.676
		c0.11-0.2,0.258-0.364,0.443-0.486c0.181-0.126,0.38-0.217,0.61-0.278c0.166-0.045,0.422-0.088,0.76-0.128
		c0.688-0.083,1.192-0.181,1.518-0.296c0.005-0.116,0.005-0.189,0.005-0.222c0-0.348-0.08-0.589-0.241-0.736
		c-0.219-0.191-0.541-0.29-0.971-0.29c-0.399,0-0.696,0.071-0.89,0.214c-0.189,0.142-0.333,0.393-0.422,0.745l-0.832-0.114
		c0.074-0.354,0.199-0.646,0.371-0.862c0.175-0.221,0.428-0.39,0.755-0.506c0.33-0.121,0.71-0.175,1.14-0.175
		s0.779,0.05,1.049,0.146c0.266,0.103,0.466,0.228,0.591,0.383c0.124,0.155,0.213,0.345,0.266,0.579
		c0.028,0.147,0.042,0.406,0.042,0.788v1.133c0,0.795,0.022,1.295,0.053,1.505c0.036,0.212,0.108,0.413,0.216,0.604h-0.887
		C123.714,42.52,123.658,42.31,123.636,42.072 M123.564,40.17c-0.309,0.127-0.771,0.233-1.393,0.324
		c-0.35,0.047-0.597,0.108-0.743,0.169c-0.142,0.063-0.258,0.157-0.339,0.274c-0.074,0.121-0.116,0.255-0.116,0.408
		c0,0.228,0.086,0.417,0.258,0.568c0.172,0.148,0.425,0.228,0.757,0.228c0.325,0,0.619-0.072,0.877-0.217
		c0.252-0.144,0.44-0.34,0.558-0.591c0.094-0.193,0.142-0.477,0.142-0.852V40.17z"/>
	<path fill="#BCC1C8" d="M127.705,41.931l0.122,0.753c-0.236,0.05-0.449,0.073-0.644,0.073c-0.308,0-0.549-0.044-0.722-0.14
		c-0.169-0.104-0.291-0.231-0.357-0.39c-0.072-0.159-0.1-0.495-0.1-1.009v-2.894h-0.627v-0.66h0.627V36.42l0.846-0.512v1.757h0.854
		v0.66h-0.854v2.945c0,0.238,0.014,0.398,0.042,0.468c0.03,0.067,0.08,0.123,0.146,0.165c0.069,0.041,0.167,0.061,0.294,0.061
		C127.428,41.964,127.553,41.956,127.705,41.931"/>
	<path fill="#BCC1C8" d="M128.643,35.75h0.852v0.983h-0.852V35.75z M128.643,37.665h0.852v5.028h-0.852V37.665z"/>
	<path fill="#BCC1C8" d="M130.889,42.693v-5.028h0.766v0.714c0.369-0.552,0.901-0.826,1.601-0.826c0.305,0,0.582,0.054,0.84,0.161
		c0.253,0.107,0.444,0.252,0.566,0.43c0.13,0.178,0.216,0.388,0.269,0.625c0.033,0.16,0.045,0.438,0.045,0.834v3.091h-0.849v-3.06
		c0-0.344-0.036-0.605-0.103-0.78c-0.067-0.172-0.184-0.31-0.353-0.408c-0.169-0.104-0.363-0.155-0.597-0.155
		c-0.357,0-0.674,0.111-0.938,0.347c-0.264,0.232-0.394,0.667-0.394,1.313v2.744H130.889z"/>
	<path fill="#BCC1C8" d="M136.064,40.184c0-0.938,0.258-1.627,0.773-2.075c0.433-0.37,0.96-0.556,1.584-0.556
		c0.688,0,1.256,0.224,1.691,0.678c0.444,0.451,0.657,1.078,0.657,1.878c0,0.645-0.094,1.159-0.288,1.528
		c-0.194,0.37-0.477,0.66-0.846,0.864c-0.372,0.202-0.779,0.308-1.215,0.308c-0.707,0-1.273-0.224-1.711-0.677
		C136.28,41.681,136.064,41.026,136.064,40.184 M136.938,40.184c0,0.642,0.139,1.117,0.422,1.44
		c0.283,0.322,0.635,0.484,1.063,0.484c0.419,0,0.773-0.162,1.06-0.487c0.277-0.32,0.416-0.813,0.416-1.471
		c0-0.622-0.139-1.096-0.422-1.412c-0.283-0.321-0.635-0.484-1.054-0.484c-0.428,0-0.779,0.163-1.063,0.481
		C137.076,39.055,136.938,39.531,136.938,40.184"/>
	<path fill="#BCC1C8" d="M145.15,42.072c-0.313,0.271-0.616,0.462-0.91,0.571c-0.291,0.11-0.604,0.165-0.939,0.165
		c-0.553,0-0.979-0.136-1.273-0.402c-0.297-0.274-0.443-0.615-0.443-1.04c0-0.247,0.052-0.47,0.166-0.676
		c0.111-0.2,0.255-0.364,0.441-0.486c0.18-0.126,0.388-0.217,0.609-0.278c0.172-0.045,0.422-0.088,0.763-0.128
		c0.686-0.083,1.19-0.181,1.521-0.296c0-0.116,0.003-0.189,0.003-0.222c0-0.348-0.081-0.589-0.244-0.736
		c-0.214-0.191-0.538-0.29-0.969-0.29c-0.401,0-0.695,0.071-0.89,0.214c-0.188,0.142-0.33,0.393-0.422,0.745l-0.832-0.114
		c0.072-0.354,0.2-0.646,0.374-0.862c0.173-0.221,0.422-0.39,0.752-0.506c0.327-0.121,0.707-0.175,1.143-0.175
		c0.428,0,0.779,0.05,1.043,0.146c0.27,0.103,0.469,0.228,0.594,0.383s0.214,0.345,0.267,0.579c0.027,0.147,0.038,0.406,0.038,0.788
		v1.133c0,0.795,0.02,1.295,0.059,1.505c0.036,0.212,0.108,0.413,0.214,0.604h-0.888C145.236,42.52,145.178,42.31,145.15,42.072
		 M145.084,40.17c-0.311,0.127-0.777,0.233-1.396,0.324c-0.35,0.047-0.599,0.108-0.74,0.169c-0.147,0.063-0.258,0.157-0.339,0.274
		c-0.077,0.121-0.119,0.255-0.119,0.408c0,0.228,0.089,0.417,0.261,0.568c0.169,0.148,0.422,0.228,0.752,0.228
		s0.621-0.072,0.876-0.217c0.258-0.144,0.447-0.34,0.563-0.591c0.094-0.193,0.142-0.477,0.142-0.852V40.17z"/>
	<path fill="#BCC1C8" d="M147.36,42.693v-5.028h0.763v0.709c0.158-0.25,0.369-0.45,0.63-0.598c0.264-0.15,0.561-0.224,0.896-0.224
		c0.375,0,0.677,0.073,0.919,0.231c0.235,0.151,0.401,0.372,0.504,0.647c0.397-0.585,0.913-0.879,1.554-0.879
		c0.493,0,0.879,0.136,1.15,0.41c0.267,0.277,0.399,0.703,0.399,1.279v3.451h-0.849v-3.17c0-0.336-0.027-0.581-0.08-0.733
		c-0.056-0.15-0.158-0.275-0.3-0.362c-0.146-0.092-0.315-0.138-0.513-0.138c-0.355,0-0.646,0.114-0.882,0.354
		c-0.233,0.23-0.347,0.615-0.347,1.128v2.922h-0.854v-3.266c0-0.38-0.069-0.663-0.208-0.852c-0.139-0.19-0.369-0.286-0.68-0.286
		c-0.241,0-0.469,0.064-0.665,0.188c-0.208,0.128-0.355,0.312-0.447,0.553c-0.094,0.244-0.136,0.596-0.136,1.054v2.608H147.36z"/>
	<path fill="#BCC1C8" d="M158.979,41.075l0.883,0.109c-0.137,0.515-0.395,0.912-0.774,1.195c-0.371,0.286-0.854,0.427-1.439,0.427
		c-0.729,0-1.314-0.225-1.747-0.678s-0.646-1.087-0.646-1.909c0-0.845,0.22-1.498,0.654-1.97c0.436-0.465,0.999-0.697,1.695-0.697
		c0.671,0,1.22,0.229,1.647,0.687c0.427,0.453,0.641,1.098,0.641,1.931c0,0.05-0.003,0.127-0.003,0.229h-3.753
		c0.031,0.555,0.187,0.978,0.466,1.269c0.28,0.296,0.633,0.441,1.052,0.441c0.313,0,0.579-0.083,0.804-0.248
		C158.671,41.697,158.849,41.435,158.979,41.075 M156.184,39.695h2.81c-0.039-0.422-0.15-0.739-0.325-0.953
		c-0.269-0.324-0.621-0.492-1.054-0.492c-0.394,0-0.724,0.136-0.99,0.398C156.355,38.904,156.214,39.259,156.184,39.695
		 M157.102,37.037l0.629-1.324h1.115l-1.04,1.324H157.102z"/>
	<path fill="#BCC1C8" d="M161.021,42.693v-5.028h0.766v0.763c0.196-0.359,0.377-0.591,0.543-0.706
		c0.164-0.115,0.344-0.169,0.547-0.169c0.285,0,0.579,0.092,0.876,0.273l-0.291,0.791c-0.211-0.123-0.419-0.186-0.63-0.186
		c-0.186,0-0.352,0.059-0.499,0.169c-0.146,0.114-0.255,0.27-0.316,0.469c-0.097,0.302-0.142,0.627-0.142,0.99v2.634H161.021z"/>
	<path fill="#BCC1C8" d="M164.359,35.75h0.852v0.983h-0.852V35.75z M164.359,37.665h0.852v5.028h-0.852V37.665z"/>
	<path fill="#BCC1C8" d="M169.893,40.854l0.835,0.11c-0.095,0.57-0.327,1.025-0.702,1.355c-0.377,0.324-0.843,0.487-1.395,0.487
		c-0.686,0-1.237-0.222-1.656-0.674c-0.421-0.45-0.629-1.098-0.629-1.933c0-0.545,0.091-1.02,0.271-1.432
		c0.178-0.404,0.455-0.71,0.821-0.914c0.371-0.198,0.771-0.302,1.203-0.302c0.544,0,0.99,0.135,1.337,0.41
		c0.347,0.277,0.571,0.67,0.671,1.181l-0.832,0.127c-0.077-0.337-0.216-0.593-0.421-0.761c-0.197-0.174-0.441-0.26-0.727-0.26
		c-0.428,0-0.774,0.155-1.043,0.465c-0.27,0.305-0.402,0.792-0.402,1.462c0,0.672,0.128,1.163,0.389,1.471
		c0.255,0.309,0.596,0.461,1.015,0.461c0.333,0,0.613-0.104,0.838-0.31C169.688,41.592,169.832,41.277,169.893,40.854"/>
	<path fill="#BCC1C8" d="M174.835,42.072c-0.313,0.271-0.621,0.462-0.912,0.571c-0.289,0.11-0.604,0.165-0.94,0.165
		c-0.555,0-0.977-0.136-1.273-0.402c-0.297-0.274-0.443-0.615-0.443-1.04c0-0.247,0.056-0.47,0.166-0.676
		c0.111-0.2,0.258-0.364,0.438-0.486c0.186-0.126,0.389-0.217,0.616-0.278c0.169-0.045,0.418-0.088,0.757-0.128
		c0.688-0.083,1.198-0.181,1.522-0.296c0.003-0.116,0.006-0.189,0.006-0.222c0-0.348-0.081-0.589-0.244-0.736
		c-0.217-0.191-0.541-0.29-0.968-0.29c-0.405,0-0.702,0.071-0.891,0.214c-0.191,0.142-0.33,0.393-0.427,0.745l-0.832-0.114
		c0.074-0.354,0.199-0.646,0.374-0.862c0.172-0.221,0.427-0.39,0.752-0.506c0.332-0.121,0.713-0.175,1.146-0.175
		c0.43,0,0.776,0.05,1.043,0.146c0.271,0.103,0.468,0.228,0.593,0.383c0.128,0.155,0.217,0.345,0.27,0.579
		c0.024,0.147,0.039,0.406,0.039,0.788v1.133c0,0.795,0.019,1.295,0.055,1.505c0.036,0.212,0.105,0.413,0.214,0.604h-0.888
		C174.915,42.52,174.86,42.31,174.835,42.072 M174.766,40.17c-0.311,0.127-0.776,0.233-1.393,0.324
		c-0.352,0.047-0.599,0.108-0.743,0.169c-0.146,0.063-0.258,0.157-0.338,0.274c-0.078,0.121-0.119,0.255-0.119,0.408
		c0,0.228,0.086,0.417,0.258,0.568c0.175,0.148,0.424,0.228,0.757,0.228c0.327,0,0.621-0.072,0.874-0.217
		c0.258-0.144,0.443-0.34,0.563-0.591c0.095-0.193,0.142-0.477,0.142-0.852V40.17z"/>
</g>
</svg>
