<?xml version="1.0" encoding="utf-8"?>
<!-- Generator: Adobe Illustrator 16.0.0, SVG Export Plug-In . SVG Version: 6.00 Build 0)  -->
<!DOCTYPE svg PUBLIC "-//W3C//DTD SVG 1.1//EN" "http://www.w3.org/Graphics/SVG/1.1/DTD/svg11.dtd">
<svg version="1.1" id="Capa_1" xmlns="http://www.w3.org/2000/svg" xmlns:xlink="http://www.w3.org/1999/xlink" x="0px" y="0px"
	 width="182.75px" height="51.5px" viewBox="0 0 182.75 51.5" enable-background="new 0 0 182.75 51.5" xml:space="preserve">
<g>
	<polygon fill="#BCC1C8" points="27.322,4.559 27.322,40.292 41.849,40.292 41.849,33.802 34.749,33.802 34.749,4.559 	"/>
	<path fill="#BCC1C8" d="M58.606,16.485c0,0-1.348-2.792-3.136-2.792c0.681-0.258,4.077-0.825,4.077-4.682
		c0-0.922-0.079-4.454-5.685-4.454h-9.12v16.228h5.003v-6.621c0,0,1.514-0.406,2.329,0.938c3.119,5.661,3.119,5.683,3.119,5.683
		l5.668-0.022L58.606,16.485z M51.732,11.214h-1.986V9.468V7.725h1.986c2.968,0,2.714,1.744,2.714,1.744S54.7,11.214,51.732,11.214"
		/>
	<polygon fill="#BCC1C8" points="76.21,8.121 76.21,4.559 62.532,4.559 62.532,12.674 62.532,20.784 76.21,20.784 76.21,17.222 
		67.656,17.222 67.656,13.924 75.52,13.924 75.52,12.25 75.52,10.575 67.656,10.575 67.656,8.121 	"/>
	<polygon fill="#BCC1C8" points="91.05,4.559 88.419,14.457 85.784,4.559 79.217,4.559 79.217,20.784 83.268,20.784 83.268,8.348 
		86.635,20.784 88.419,20.784 90.197,20.784 93.563,8.348 93.563,20.784 97.616,20.784 97.616,4.559 	"/>
	<path fill="#BCC1C8" d="M108.913,4.22c-4.754,0-8.605,3.785-8.605,8.454c0,4.667,3.852,8.452,8.605,8.452
		c4.757,0,8.605-3.785,8.605-8.452C117.519,8.005,113.67,4.22,108.913,4.22 M108.913,17.431c-1.968,0-3.564-2.123-3.564-4.741
		c0-2.622,1.597-4.742,3.564-4.742c1.972,0,3.568,2.12,3.568,4.742C112.481,15.309,110.885,17.431,108.913,17.431"/>
	<path fill="#BCC1C8" d="M54.199,22.712c-5.639,0-10.214,4.041-10.214,9.025c0,4.985,4.575,9.028,10.214,9.028
		c5.644,0,10.217-4.043,10.217-9.028C64.416,26.753,59.842,22.712,54.199,22.712 M54.199,36.38c-1.997,0-3.613-2.077-3.613-4.643
		c0-2.564,1.616-4.636,3.613-4.636c2,0,3.617,2.072,3.617,4.636C57.816,34.303,56.199,36.38,54.199,36.38"/>
	<path fill="#BCC1C8" d="M127.809,17.398c-3.664,0.042-3.275-4.724-3.275-4.724s-0.289-4.566,3.27-4.746
		c0.526-0.029,2.382,0.103,3.146,2.306l4.463-1.024c0,0-0.87-4.989-7.54-4.989c-1.771,0-8.319,0.257-8.319,8.454
		c0,8.191,6.549,8.419,8.319,8.454c6.687,0.119,7.65-5.51,7.65-5.51l-4.438-1.422C130.512,16.506,129.519,17.383,127.809,17.398"/>
	<path fill="#BCC1C8" d="M77.511,36.783c-4.651,0.046-4.154-5.046-4.154-5.046s-0.368-4.87,4.142-5.065
		c0.667-0.029,3.021,0.11,3.991,2.462l5.654-1.093c0,0-1.101-5.329-9.56-5.329c-2.238,0-10.542,0.276-10.542,9.025
		c0,8.749,8.304,8.993,10.542,9.025c8.489,0.129,9.709-5.878,9.709-5.878l-5.633-1.52C80.939,35.831,79.676,36.766,77.511,36.783"/>
	<polygon fill="#BCC1C8" points="138.074,4.559 138.074,20.855 143.106,20.855 143.106,16.787 145.804,14.074 149.239,20.855 
		155.428,20.855 149.195,10.625 155.177,4.559 148.458,4.559 143.106,10.744 143.106,4.559 	"/>
	<polygon fill="#BCC1C8" points="92.148,23.595 92.148,40.766 97.385,40.766 97.385,36.479 100.187,33.619 103.755,40.766 
		110.193,40.766 103.708,29.981 109.927,23.595 102.942,23.595 97.385,30.11 97.385,23.595 	"/>
	<path fill="#BCC1C8" d="M122.807,22.722c-1.569,0-10.246,0.231-10.246,9.453c0,2.449,1.721,8.589,9.737,8.589
		c1.143,0,7.353,0.37,10.276-4.751l-6.541-0.669c0,0-2.29,2.928-5.244,0.818c-0.391-0.419-1.115-1.086-1.324-2.895h13.527
		C132.992,33.268,134.677,22.722,122.807,22.722 M119.473,30.198c0-3.256,2.539-3.647,3.345-3.647c3.345,0,3.345,3.647,3.345,3.647
		H119.473z"/>
	<path fill="#BCC1C8" d="M134.341,23.215h7.028l3.821,11.407l3.33-11.407h6.55l-6.91,18.479c0,0-1.77,5.586-6.067,5.586
		c-4.297,0-6.348-0.319-6.348-0.319l-0.521-4.423c0,0,5.382,2.092,6.626-2.125C139.241,34.584,134.341,23.215,134.341,23.215"/>
</g>
</svg>
