<?xml version="1.0" encoding="utf-8"?>
<!-- Generator: Adobe Illustrator 16.0.0, SVG Export Plug-In . SVG Version: 6.00 Build 0)  -->
<!DOCTYPE svg PUBLIC "-//W3C//DTD SVG 1.1//EN" "http://www.w3.org/Graphics/SVG/1.1/DTD/svg11.dtd">
<svg version="1.1" id="Capa_1" xmlns="http://www.w3.org/2000/svg" xmlns:xlink="http://www.w3.org/1999/xlink" x="0px" y="0px"
	 width="182.75px" height="51.5px" viewBox="0 0 182.75 51.5" enable-background="new 0 0 182.75 51.5" xml:space="preserve">
<g>
	<path fill="#BDC1C7" d="M75.651,15.729v2.931h-8.32c-0.083,0-0.161,0.018-0.236,0.05c-0.074,0.033-0.146,0.074-0.211,0.124
		c-0.066,0.05-0.121,0.108-0.162,0.174c-0.041,0.066-0.063,0.141-0.063,0.224v1.316c0,0.066,0.014,0.128,0.037,0.187
		c0.025,0.058,0.063,0.12,0.112,0.186c0.066,0.083,0.149,0.158,0.249,0.225c0.099,0.065,0.198,0.099,0.298,0.099h5.464
		c0.215,0,0.443,0.018,0.685,0.05c0.238,0.033,0.467,0.083,0.683,0.149c0.231,0.065,0.45,0.158,0.658,0.272
		c0.207,0.117,0.401,0.249,0.583,0.398c0.133,0.133,0.257,0.273,0.373,0.422c0.116,0.149,0.215,0.315,0.298,0.497
		s0.145,0.381,0.187,0.596c0.041,0.215,0.063,0.455,0.063,0.721v5.438c0,0.184-0.009,0.365-0.025,0.547
		c-0.017,0.184-0.042,0.357-0.074,0.521c-0.051,0.248-0.12,0.48-0.212,0.697c-0.091,0.215-0.194,0.414-0.31,0.596
		c-0.249,0.381-0.572,0.688-0.969,0.918c-0.249,0.15-0.522,0.262-0.82,0.336s-0.613,0.111-0.944,0.111H61.194v-2.955h8.297
		c0.1,0,0.199-0.016,0.299-0.051c0.099-0.031,0.189-0.074,0.272-0.123c0.083-0.051,0.153-0.113,0.212-0.188
		c0.058-0.074,0.086-0.16,0.086-0.26v-1.565c0-0.082-0.023-0.165-0.074-0.248c-0.05-0.083-0.115-0.148-0.198-0.198
		c-0.066-0.066-0.146-0.115-0.236-0.149c-0.091-0.033-0.178-0.049-0.261-0.049H63.58c-0.232,0-0.451-0.021-0.658-0.063
		c-0.208-0.042-0.395-0.088-0.56-0.137c-0.183-0.065-0.348-0.145-0.497-0.235c-0.148-0.092-0.28-0.195-0.396-0.312
		c-0.133-0.132-0.249-0.277-0.348-0.435c-0.1-0.157-0.183-0.336-0.248-0.533c-0.134-0.365-0.199-0.771-0.199-1.219v-5.563
		c0-0.198,0.016-0.405,0.05-0.621c0.032-0.214,0.082-0.43,0.149-0.646c0.065-0.214,0.152-0.422,0.26-0.619
		c0.107-0.199,0.228-0.39,0.36-0.572c0.116-0.149,0.248-0.289,0.397-0.422c0.149-0.132,0.314-0.248,0.497-0.349
		c0.182-0.083,0.376-0.148,0.583-0.197c0.207-0.051,0.427-0.075,0.659-0.075H75.651z"/>
	<path fill="#BDC1C7" d="M92.268,20.449c0.232,0,0.46,0.017,0.684,0.049c0.224,0.034,0.435,0.083,0.633,0.148
		c0.199,0.067,0.377,0.154,0.535,0.262c0.156,0.107,0.311,0.245,0.459,0.41c0.133,0.166,0.252,0.359,0.36,0.584
		c0.106,0.223,0.194,0.483,0.261,0.781c0.033,0.184,0.057,0.377,0.074,0.584c0.016,0.207,0.025,0.436,0.025,0.684v6.184
		c0,0.266-0.012,0.51-0.037,0.734c-0.025,0.223-0.063,0.434-0.112,0.633c-0.067,0.232-0.149,0.447-0.248,0.646
		c-0.1,0.199-0.216,0.363-0.348,0.496c-0.116,0.148-0.253,0.277-0.41,0.385c-0.158,0.109-0.319,0.195-0.483,0.262
		c-0.217,0.082-0.444,0.141-0.685,0.174s-0.476,0.049-0.708,0.049H82.059c-0.265,0-0.524-0.023-0.782-0.074
		c-0.257-0.049-0.501-0.133-0.732-0.248c-0.182-0.1-0.356-0.215-0.522-0.348c-0.165-0.133-0.313-0.281-0.445-0.447
		c-0.117-0.166-0.221-0.348-0.312-0.547s-0.162-0.422-0.211-0.67c-0.034-0.133-0.058-0.277-0.075-0.436
		c-0.016-0.156-0.024-0.326-0.024-0.508v-6.311c0-0.23,0.009-0.447,0.024-0.645c0.018-0.199,0.041-0.391,0.075-0.572
		c0.066-0.281,0.149-0.538,0.248-0.771c0.1-0.231,0.215-0.422,0.348-0.57c0.149-0.183,0.311-0.331,0.484-0.447
		s0.352-0.207,0.534-0.274c0.199-0.065,0.401-0.114,0.608-0.148c0.207-0.032,0.41-0.049,0.609-0.049H92.268z M88.642,23.032h-3.278
		c-0.051,0-0.104,0.024-0.161,0.075c-0.06,0.05-0.104,0.107-0.138,0.174c-0.032,0.065-0.058,0.136-0.073,0.21
		c-0.018,0.075-0.025,0.146-0.025,0.212v6.432c0,0.102,0.025,0.195,0.074,0.287c0.05,0.092,0.107,0.17,0.174,0.234
		c0.066,0.084,0.145,0.15,0.236,0.201c0.091,0.049,0.178,0.074,0.261,0.074h2.855c0.083,0,0.171-0.025,0.262-0.074
		c0.091-0.051,0.17-0.109,0.235-0.176c0.083-0.066,0.146-0.145,0.187-0.234c0.042-0.092,0.062-0.178,0.062-0.262v-6.459
		c0-0.082-0.02-0.165-0.062-0.248c-0.041-0.083-0.095-0.156-0.161-0.223c-0.066-0.065-0.141-0.12-0.223-0.162
		C88.783,23.053,88.708,23.032,88.642,23.032"/>
	<rect x="98.043" y="15.705" fill="#BDC1C7" width="6.061" height="17.809"/>
	<path fill="#BDC1C7" d="M112.572,20.399v9.835c0,0.084,0.025,0.17,0.076,0.262c0.049,0.09,0.106,0.17,0.174,0.236
		c0.082,0.066,0.168,0.121,0.26,0.162c0.091,0.041,0.178,0.061,0.261,0.061h2.708c0.082,0,0.169-0.016,0.26-0.049
		c0.092-0.033,0.17-0.084,0.236-0.148c0.066-0.066,0.125-0.139,0.174-0.211c0.051-0.076,0.075-0.154,0.075-0.236v-9.887h6.036v13.09
		h-12.693c-0.281,0-0.546-0.029-0.795-0.086c-0.249-0.059-0.48-0.137-0.695-0.236c-0.216-0.117-0.414-0.252-0.597-0.41
		s-0.349-0.326-0.497-0.51c-0.148-0.182-0.285-0.385-0.408-0.607c-0.125-0.225-0.229-0.453-0.312-0.684
		c-0.066-0.232-0.12-0.467-0.161-0.707c-0.042-0.24-0.063-0.477-0.063-0.709v-9.165H112.572z"/>
	<path fill="#BDC1C7" d="M133.672,17.592v2.832h4.795v2.534h-4.795v7.302c0,0.084,0.013,0.166,0.037,0.25
		c0.025,0.082,0.063,0.156,0.112,0.223s0.124,0.121,0.224,0.162s0.224,0.061,0.373,0.061h4.371v2.533h-7.949
		c-0.348,0-0.666-0.037-0.955-0.111c-0.291-0.074-0.551-0.178-0.782-0.311c-0.166-0.115-0.32-0.24-0.46-0.371
		c-0.141-0.133-0.27-0.273-0.385-0.424c-0.116-0.182-0.221-0.371-0.312-0.57s-0.161-0.406-0.211-0.621
		c-0.033-0.166-0.058-0.328-0.074-0.484s-0.024-0.318-0.024-0.484v-7.153h-2.584v-2.534h2.535v-2.832H133.672z"/>
	<path fill="#BDC1C7" d="M154.313,20.399c0.282,0,0.563,0.024,0.846,0.074c0.28,0.05,0.554,0.141,0.819,0.273
		c0.198,0.099,0.38,0.231,0.546,0.397c0.165,0.165,0.314,0.356,0.447,0.571c0.083,0.165,0.156,0.339,0.225,0.521
		c0.065,0.184,0.114,0.383,0.148,0.598c0.033,0.28,0.049,0.58,0.049,0.894v4.646h-10.109v1.416c0,0.133,0.033,0.268,0.1,0.408
		s0.156,0.262,0.273,0.361c0.115,0.115,0.239,0.207,0.373,0.273c0.131,0.066,0.264,0.098,0.397,0.098h8.37v2.561h-12.494
		c-0.266,0-0.525-0.021-0.782-0.063s-0.493-0.121-0.708-0.236c-0.199-0.082-0.382-0.199-0.547-0.348
		c-0.166-0.148-0.314-0.332-0.447-0.547c-0.099-0.148-0.182-0.326-0.248-0.535c-0.066-0.205-0.123-0.434-0.174-0.682
		c-0.033-0.166-0.058-0.344-0.074-0.533c-0.017-0.191-0.024-0.395-0.024-0.609v-5.887c0-0.199,0.008-0.389,0.024-0.571
		s0.032-0.355,0.049-0.521c0.051-0.282,0.117-0.542,0.199-0.783c0.082-0.239,0.182-0.451,0.299-0.633
		c0.131-0.215,0.285-0.397,0.459-0.546c0.174-0.15,0.369-0.266,0.584-0.349c0.199-0.083,0.414-0.145,0.646-0.186
		s0.463-0.063,0.694-0.063H154.313z M151.556,25.839v-2.063c0-0.082-0.021-0.169-0.062-0.26c-0.043-0.091-0.096-0.178-0.162-0.261
		s-0.141-0.149-0.223-0.199c-0.084-0.05-0.166-0.074-0.248-0.074h-2.883c-0.083,0-0.16,0.024-0.236,0.074
		c-0.074,0.05-0.145,0.108-0.211,0.174c-0.065,0.083-0.119,0.17-0.162,0.261c-0.041,0.092-0.062,0.179-0.062,0.262v2.086H151.556z"
		/>
	<path fill="#BDC1C7" d="M173.24,20.449v2.558h-6.012c-0.133,0-0.265,0.034-0.398,0.101c-0.133,0.065-0.247,0.148-0.346,0.247
		c-0.117,0.1-0.207,0.212-0.274,0.336c-0.066,0.125-0.099,0.244-0.099,0.36v5.91c0,0.117,0.037,0.236,0.111,0.361
		s0.161,0.229,0.262,0.311c0.114,0.1,0.238,0.174,0.371,0.225c0.133,0.049,0.266,0.074,0.398,0.074h5.986v2.582h-9.688
		c-0.347,0-0.662-0.033-0.942-0.1c-0.283-0.064-0.539-0.156-0.771-0.271c-0.216-0.133-0.419-0.283-0.608-0.447
		c-0.191-0.166-0.353-0.357-0.484-0.572c-0.116-0.166-0.221-0.348-0.312-0.547s-0.161-0.396-0.211-0.596
		c-0.049-0.199-0.091-0.406-0.124-0.621s-0.05-0.422-0.05-0.621v-5.439c0-0.231,0.021-0.476,0.063-0.732
		c0.041-0.258,0.103-0.501,0.186-0.733c0.082-0.248,0.186-0.488,0.311-0.72c0.123-0.232,0.269-0.447,0.435-0.646
		c0.149-0.165,0.313-0.317,0.495-0.459c0.183-0.141,0.39-0.261,0.621-0.361c0.166-0.065,0.353-0.114,0.56-0.148
		c0.207-0.032,0.418-0.049,0.634-0.049H173.24z"/>
	<path fill="#BDC1C7" d="M144.11,36.834v0.988h-3.06c-0.039,0-0.08,0.008-0.123,0.025s-0.082,0.041-0.115,0.07
		c-0.04,0.027-0.071,0.059-0.094,0.092c-0.022,0.035-0.034,0.07-0.034,0.111v3.484c0,0.041,0.01,0.08,0.03,0.121
		c0.02,0.039,0.047,0.076,0.08,0.109c0.035,0.029,0.071,0.055,0.111,0.076c0.039,0.023,0.079,0.035,0.119,0.035h0.886
		c0.04,0,0.08-0.01,0.12-0.029c0.039-0.021,0.074-0.045,0.102-0.072c0.035-0.029,0.062-0.064,0.082-0.104
		c0.02-0.039,0.029-0.076,0.029-0.109v-1.348h-1.134v-0.98h3.281v3.631h-4.56c-0.113,0-0.217-0.012-0.311-0.035
		c-0.094-0.021-0.18-0.053-0.26-0.092c-0.09-0.047-0.172-0.102-0.243-0.166c-0.071-0.066-0.132-0.135-0.183-0.209
		c-0.045-0.068-0.084-0.139-0.115-0.209c-0.031-0.072-0.059-0.145-0.082-0.217c-0.022-0.098-0.041-0.195-0.055-0.291
		c-0.015-0.096-0.021-0.189-0.021-0.281v-3.041c0-0.109,0.006-0.213,0.021-0.316c0.014-0.102,0.035-0.199,0.064-0.289
		c0.023-0.092,0.054-0.178,0.093-0.26c0.04-0.084,0.083-0.156,0.128-0.217c0.053-0.08,0.11-0.148,0.176-0.205
		c0.064-0.057,0.135-0.109,0.209-0.154c0.072-0.039,0.151-0.068,0.233-0.09c0.082-0.02,0.166-0.029,0.251-0.029H144.11z"/>
	<path fill="#BDC1C7" d="M148.643,42.943h-2.08v-4.49h2.08v0.4c0.027-0.045,0.064-0.088,0.111-0.127
		c0.017-0.023,0.037-0.045,0.063-0.064c0.026-0.02,0.051-0.035,0.073-0.047c0.034-0.023,0.067-0.045,0.103-0.064
		c0.033-0.02,0.067-0.035,0.103-0.047c0.039-0.012,0.077-0.021,0.114-0.029c0.037-0.01,0.072-0.014,0.106-0.014h1.236v1.244h-1.091
		c-0.108,0-0.209,0.012-0.299,0.035c-0.097,0.023-0.179,0.053-0.248,0.094c-0.039,0.018-0.072,0.037-0.102,0.064
		c-0.027,0.023-0.054,0.055-0.076,0.088c-0.033,0.035-0.059,0.074-0.072,0.115c-0.015,0.043-0.021,0.09-0.021,0.141V42.943z"/>
	<path fill="#BDC1C7" d="M157,38.463c0.08,0,0.158,0.004,0.235,0.016c0.076,0.012,0.147,0.029,0.217,0.051
		c0.068,0.023,0.13,0.053,0.183,0.09c0.055,0.037,0.106,0.084,0.158,0.141c0.045,0.057,0.086,0.123,0.123,0.201
		c0.037,0.076,0.067,0.166,0.09,0.268c0.012,0.063,0.021,0.129,0.025,0.201c0.006,0.07,0.01,0.148,0.01,0.234v2.121
		c0,0.092-0.005,0.176-0.014,0.25c-0.008,0.078-0.021,0.15-0.039,0.219c-0.021,0.08-0.05,0.152-0.085,0.221
		c-0.034,0.068-0.073,0.125-0.119,0.172c-0.04,0.051-0.087,0.094-0.14,0.131c-0.055,0.037-0.11,0.068-0.167,0.09
		c-0.074,0.029-0.152,0.049-0.234,0.061c-0.082,0.01-0.163,0.016-0.243,0.016h-3.502c-0.091,0-0.18-0.008-0.268-0.025
		c-0.089-0.018-0.172-0.045-0.252-0.084c-0.063-0.035-0.122-0.074-0.18-0.119c-0.057-0.047-0.107-0.098-0.152-0.154
		c-0.04-0.057-0.076-0.119-0.107-0.188s-0.055-0.145-0.072-0.23c-0.012-0.045-0.02-0.094-0.025-0.148
		c-0.005-0.055-0.008-0.111-0.008-0.176v-2.164c0-0.08,0.003-0.152,0.008-0.221c0.006-0.068,0.014-0.133,0.025-0.197
		c0.022-0.096,0.052-0.184,0.086-0.264c0.033-0.08,0.074-0.145,0.119-0.195c0.051-0.063,0.106-0.113,0.166-0.154
		c0.06-0.039,0.121-0.07,0.184-0.094c0.068-0.021,0.137-0.039,0.209-0.051c0.07-0.012,0.141-0.016,0.208-0.016H157z M155.756,39.348
		h-1.125c-0.017,0-0.035,0.008-0.055,0.025s-0.035,0.037-0.047,0.061c-0.011,0.023-0.02,0.047-0.025,0.072s-0.008,0.049-0.008,0.072
		v2.207c0,0.033,0.008,0.066,0.025,0.098s0.036,0.059,0.059,0.082c0.023,0.027,0.051,0.051,0.081,0.066
		c0.031,0.018,0.062,0.025,0.091,0.025h0.979c0.028,0,0.058-0.008,0.089-0.025c0.031-0.016,0.059-0.037,0.081-0.059
		c0.028-0.023,0.049-0.049,0.063-0.082c0.015-0.031,0.021-0.061,0.021-0.088v-2.217c0-0.027-0.007-0.057-0.021-0.084
		c-0.015-0.029-0.032-0.055-0.056-0.076c-0.022-0.023-0.048-0.043-0.075-0.057C155.805,39.355,155.778,39.348,155.756,39.348"/>
	<path fill="#BDC1C7" d="M162.154,38.445v3.375c0,0.027,0.008,0.057,0.025,0.088s0.037,0.059,0.061,0.082
		c0.028,0.021,0.059,0.041,0.09,0.055s0.061,0.021,0.089,0.021h0.929c0.028,0,0.059-0.006,0.09-0.018
		c0.03-0.012,0.059-0.027,0.08-0.051c0.023-0.021,0.043-0.047,0.061-0.072c0.017-0.025,0.025-0.053,0.025-0.08v-3.393h2.071v4.49
		h-4.354c-0.098,0-0.188-0.01-0.273-0.029c-0.085-0.02-0.164-0.047-0.238-0.082c-0.074-0.039-0.142-0.086-0.205-0.139
		c-0.062-0.055-0.119-0.113-0.17-0.176s-0.098-0.131-0.141-0.209c-0.042-0.076-0.078-0.154-0.105-0.234
		c-0.023-0.08-0.043-0.16-0.057-0.242s-0.021-0.164-0.021-0.244v-3.143H162.154z"/>
	<path fill="#BDC1C7" d="M172.098,38.453c0.079,0,0.16,0.01,0.243,0.025c0.082,0.018,0.16,0.043,0.234,0.076
		c0.118,0.051,0.224,0.125,0.315,0.223c0.068,0.068,0.127,0.148,0.178,0.242c0.053,0.094,0.092,0.201,0.121,0.32
		c0.017,0.074,0.028,0.152,0.037,0.234c0.008,0.082,0.014,0.168,0.014,0.26v1.746c0,0.092-0.006,0.178-0.014,0.26
		c-0.009,0.082-0.021,0.162-0.037,0.234c-0.029,0.092-0.063,0.178-0.1,0.256c-0.035,0.08-0.076,0.15-0.123,0.213
		c-0.046,0.063-0.096,0.117-0.152,0.162c-0.058,0.047-0.117,0.086-0.18,0.119c-0.086,0.041-0.174,0.07-0.264,0.09
		c-0.092,0.02-0.182,0.029-0.273,0.029h-2.326v1.695h-2.054v-6.186H172.098z M170.939,39.34h-0.963c-0.029,0-0.057,0.01-0.082,0.029
		c-0.024,0.02-0.047,0.041-0.063,0.064c-0.022,0.029-0.039,0.059-0.052,0.088c-0.01,0.033-0.016,0.063-0.016,0.092v2.215
		c0,0.021,0.006,0.049,0.021,0.076c0.014,0.027,0.032,0.055,0.056,0.076c0.021,0.023,0.049,0.041,0.077,0.057
		c0.028,0.014,0.056,0.02,0.085,0.02h0.945c0.029,0,0.056-0.006,0.08-0.02c0.027-0.016,0.051-0.031,0.074-0.047
		c0.022-0.029,0.041-0.059,0.055-0.09s0.021-0.061,0.021-0.09v-2.232c0-0.029-0.008-0.057-0.021-0.086
		c-0.014-0.027-0.032-0.053-0.055-0.076c-0.023-0.023-0.049-0.041-0.078-0.057C170.996,39.346,170.967,39.34,170.939,39.34"/>
	<path fill="#BDC1C7" d="M54.267,25.506L32.183,3.422c-0.135-0.135-0.354-0.135-0.488,0L9.61,25.506
		c-0.135,0.135-0.135,0.354,0,0.488l22.084,22.084c0.135,0.135,0.354,0.135,0.488,0l22.084-22.084
		C54.402,25.859,54.402,25.641,54.267,25.506 M50.35,25.984L32.173,44.16c-0.13,0.131-0.34,0.131-0.47,0l-7.273-7.275l5.39-5.389
		l1.459,1.459c0.065,0.064,0.171,0.064,0.236,0l2.877-2.877c0.064-0.066,0.064-0.172,0-0.236l-6.545-6.545
		c-0.065-0.064-0.17-0.064-0.235,0l-2.878,2.878c-0.065,0.064-0.065,0.17,0,0.235l1.459,1.459l-5.39,5.389l-7.275-7.273
		c-0.129-0.13-0.129-0.34,0-0.47L31.703,7.339c0.13-0.129,0.34-0.129,0.47,0l7.274,7.274L33.99,20.07l-2.722-2.721
		c-0.065-0.065-0.17-0.065-0.235,0l-2.878,2.877c-0.065,0.065-0.065,0.17,0,0.235l9.071,9.071c0.064,0.064,0.17,0.064,0.234,0
		l2.878-2.877c0.065-0.065,0.065-0.171,0-0.235l-2.722-2.723l5.458-5.458l7.274,7.274C50.479,25.645,50.479,25.854,50.35,25.984"/>
</g>
</svg>
